<svg id="Layer_1" data-name="Layer 1" xmlns="http://www.w3.org/2000/svg" viewBox="0 0 130.8 72.87"><defs><style>.cls-1{fill:#dfa9cd;}.cls-2{fill:#fff6e5;}.cls-3{fill:#fff;}</style></defs><path class="cls-1" d="M130.73,16C132.26,31.35,109,26.39,65.64,27.64,20.5,28.94-5.12,29.58,1.38,16c3.84-8,29-16,64.68-16S129.85,7.22,130.73,16Z"/><path class="cls-1" d="M.16,56.52C-2.2,41.57,22,46.27,65.3,45.23c45.14-1.09,65.67-4.44,64.2,11.91-.77,8.6-29,15.89-64.75,15.72S1.24,63.36.16,56.52Z"/><rect class="cls-2" x="20" y="28.28" width="95.4" height="16.42" rx="8.21"/><path class="cls-3" d="M80.47,67.9c-1.08-3.06,6-2.94,18.46-4.72,13-1.85,18.79-3.29,18.81.2,0,1.84-7.94,4.39-18.23,5.64S81,69.3,80.47,67.9Z"/><path class="cls-3" d="M52.72,4.24C54,7.38,46.89,7.59,34.55,10,21.7,12.57,16,14.35,15.74,10.71c-.12-1.92,7.67-5,17.88-6.73S52.14,2.81,52.72,4.24Z"/></svg>