<svg id="Layer_1" data-name="Layer 1" xmlns="http://www.w3.org/2000/svg" viewBox="0 0 132.51 128.92"><defs><style>.cls-1{fill:#cec3b8;}.cls-2{fill:#fbd7b0;}.cls-3{fill:#e671a8;}.cls-4{fill:#fff;}.cls-5{fill:#99cff2;}.cls-6{fill:#e94381;}.cls-7{fill:#8ac79d;}.cls-8{fill:#a3d0a1;}.cls-9{fill:#eb567f;}.cls-10{fill:#96c98c;}.cls-11{fill:#95cba3;}</style></defs><circle class="cls-1" cx="68.05" cy="64.46" r="64.46"/><circle class="cls-2" cx="64.46" cy="64.46" r="64.46"/><path class="cls-3" d="M54,104.56c-4.75,1.12-9.48,3-14.32,2.61s-10-3.79-10.83-9.3c-.75-4.93,2.07-10.09.72-14.85a15.64,15.64,0,0,0-3.65-5.78L12.64,61.91a7,7,0,0,1-.59-8.15l0,0c3.34-5.15,8.66-8.84,10.27-15,1.33-5.08.08-11.61,7.32-12.86a11.6,11.6,0,0,1,4.79.31c8.22,2,14.5-4.91,21.41-9A31.15,31.15,0,0,1,75.8,13.06c3.1.42,6.46,1.58,8.1,4.65,1.18,2.23,1.2,5,1.91,7.48,1.38,4.75,5.17,8,9,10.33s8,4.18,11.2,7.56c4.74,5,6.72,13.2,4.89,20.31-.52,2-1.32,4-1.09,6.12.47,4.08,4.49,6.13,6.55,9.5s2,7.86.39,11.43A15,15,0,0,1,109,98c-5.22,2.24-7.12-.53-14.88-1.43a2.43,2.43,0,0,0-2.46,1.65c-1.28,3.23-1.74,6.85-4.28,9.13-3,2.72-5.29-7.39-9.84-1.89-1.31,2-9.65.6-10.37.31A19.91,19.91,0,0,0,54,104.56Z"/><circle class="cls-4" cx="64.46" cy="64.46" r="14.51"/><circle class="cls-5" cx="68.05" cy="29.55" r="3.59"/><circle class="cls-5" cx="32.99" cy="33.15" r="3.59"/><circle class="cls-6" cx="49.95" cy="41.94" r="3.59"/><circle class="cls-7" cx="25.81" cy="56.68" r="3.59"/><circle class="cls-5" cx="42.76" cy="75.38" r="3.59"/><circle class="cls-8" cx="39.16" cy="97.21" r="3.59"/><circle class="cls-9" cx="62.42" cy="86.98" r="3.59"/><circle class="cls-10" cx="104.82" cy="86.98" r="3.59"/><circle class="cls-5" cx="88.77" cy="64.46" r="3.59"/><circle class="cls-5" cx="85.17" cy="92.19" r="3.59"/><circle class="cls-11" cx="85.17" cy="45.54" r="3.59"/><path class="cls-4" d="M115.68,33c-2.37,3.71-6.71-2-16.33-10.07C89.33,14.48,84.23,11.26,87.69,8c1.83-1.72,9.37,2.13,17.1,9S116.76,31.31,115.68,33Z"/></svg>