<svg id="Layer_1" data-name="Layer 1" xmlns="http://www.w3.org/2000/svg" viewBox="0 0 132.45 128.92"><defs><style>.cls-1{fill:#cec3b8;}.cls-2{fill:#fbd7b0;}.cls-3{fill:#e671a8;}.cls-4{fill:#fff;}</style></defs><circle class="cls-1" cx="67.99" cy="64.46" r="64.46"/><circle class="cls-2" cx="64.46" cy="64.46" r="64.46"/><path class="cls-3" d="M119.26,61.34c22,24.15-49.83,60.19-58.73,58.69-32-5.37-63.41-29-52.63-58.69C19,30.87,36.3,20.05,62.11,6.09,82.67-5,97.45,37.39,119.26,61.34Z"/><circle class="cls-4" cx="64.46" cy="64.46" r="14.51"/><path class="cls-4" d="M106.5,62.53c-1.47,1.73-2.75-1.05-5.37-3.26s-5.57-3-4.1-4.74,4.77-1.35,7.38.86S108,60.79,106.5,62.53Z"/><path class="cls-4" d="M80.1,19.38c-.56,2.19-2.93.25-6.24-.59s-6.33-.28-5.77-2.48,3.7-3.29,7-2.44S80.66,17.18,80.1,19.38Z"/><path class="cls-4" d="M68.05,40.84c.47-2.22,2.91-.38,6.26.33s6.33,0,5.86,2.22-3.56,3.45-6.91,2.75S67.58,43.06,68.05,40.84Z"/><path class="cls-4" d="M84.11,36.88c-2-1.07.46-2.9,2.08-5.92S88,24.89,90,26s2.3,4.39.68,7.41S86.11,38,84.11,36.88Z"/><path class="cls-4" d="M55.71,20.11c2-1.08,2.17,2,3.79,5s4.09,4.84,2.09,5.91-4.93-.49-6.56-3.5S53.71,21.18,55.71,20.11Z"/><path class="cls-4" d="M40.83,36.93c1.62,1.6-1.25,2.66-3.65,5.1s-3.43,5.32-5,3.73-1-4.86,1.43-7.3S39.22,35.34,40.83,36.93Z"/><path class="cls-4" d="M98.39,72.3c1.62,1.59-1.25,2.66-3.65,5.1s-3.43,5.32-5,3.73-1-4.86,1.42-7.3S96.78,70.71,98.39,72.3Z"/><path class="cls-4" d="M69.34,94c-.57,2.2-2.93.25-6.24-.6s-6.33-.29-5.76-2.49,3.71-3.29,7-2.43S69.91,91.83,69.34,94Z"/><path class="cls-4" d="M95.43,97.44c-.56,2.2-2.93.25-6.24-.6s-6.32-.29-5.76-2.49,3.71-3.28,7-2.43S96,95.24,95.43,97.44Z"/><path class="cls-4" d="M30.49,60.23c.79-2.13,2.94.05,6.15,1.25s6.25.94,5.46,3.07-4,2.88-7.24,1.69S29.7,62.35,30.49,60.23Z"/><path class="cls-4" d="M35.74,92.26c-2.26.23-1.25-2.66-1.59-6.06s-1.92-6,.34-6.27,4.37,2.35,4.71,5.76S38,92,35.74,92.26Z"/><path class="cls-4" d="M120.05,39.57c-2.81,3.38-6.42-2.79-14.94-12-8.88-9.63-13.55-13.47-9.7-16.28,2-1.48,9,3.28,15.83,11.1S121.33,38,120.05,39.57Z"/></svg>