<svg id="Layer_1" data-name="Layer 1" xmlns="http://www.w3.org/2000/svg" viewBox="0 0 317.13 494.65"><defs><style>.cls-1{fill:#fff;}.cls-2{fill:#e94365;}.cls-3{fill:#5cb130;}.cls-4{fill:#522d11;}.cls-5{fill:#eaaccf;}.cls-6{fill:#a3d9eb;}.cls-7{fill:#d41216;}</style></defs><path class="cls-1" d="M294.6,465.3a36.69,36.69,0,0,1-1.68,7.49c-3.68,12.74-2.78,21.6-16.47,21.6H221.28c-24.86.34-49.86.34-74.76,0H83.27c-13.75,0-13.55-9.6-17.39-23-.68-2.35-.62-5.44-.77-7.87,1.06,0-.22-32.55-4.45-58.47-1.39-8.54-3.4-16.85-3.75-22.61-.34-8.5-.56-18-.56-9.36-.09-2-.12-6,0-4.49.47,1.26,2-11.74,4.48-12.35,2.43-9,5.7-9.07,9.53-8.66,3.83,8,8.22,8.25,12.88-3.26,9,6.2,8,1.44,16.07,0,12.39,13.59,16.06-3.83,16.06,0,2.44-3.53,4.93,6.53,7.44,0,3-4.21,5.93-.79,8.92,1.35,3,3.62,6-5.38,9-1,3-2.55,6-4.82,9-5.34s6,.68,9.08,5.09c6.06,4.8,12.13,11.05,18.2-.44,6.06,0,12.12-1.76,18.16-.18q4.51-5,9-4.83t9,5.32c2.72,10.29-.42-7.72,8.07,0,0-10.61,4.73-6.37,7.47.29,1.9,4.64,2.75,6.53,6.84-.29,4.08.18,8.68,11.24,13.28,0,4.6,13.17,9.2,5.16,13.28,0,4.09-9.19,7.67,5.64,10.22,0,2.55-.08,4.09-4.48,4.09,0,4.82,10,9.34,4.15,13.26,3.48,3.92-1.43,7.24-3.28,9.63,9.17,2.39,6.63,3.86,6,4.1,13,0-2.72,0,2.67-.05,2.75l-.56,9.62C301.46,406.05,294.6,465.3,294.6,465.3Z"/><path class="cls-2" d="M279.78,494.64H81.21c-5.9,0-10.34-5.8-14.26-12.16L56.35,373.12c.66-4.34,19-6,24.86-6H279.78c5.9,0,24.56,2.22,23.4,9.91l-10.35,106.4C287.41,491.44,287.41,491.44,279.78,494.64Z"/><rect class="cls-1" x="83.16" y="367.11" width="193.3" height="127.54" rx="10.69"/><rect class="cls-2" x="101.72" y="367.11" width="156.83" height="127.54" rx="10.69"/><rect class="cls-1" x="123.05" y="367.11" width="116.28" height="127.54" rx="10.69"/><rect class="cls-2" x="142.99" y="367.11" width="78.23" height="127.54" rx="10.69"/><rect class="cls-1" x="161.76" y="367.11" width="41.09" height="127.54" rx="10.69"/><rect class="cls-2" x="171.61" y="367.11" width="21.38" height="127.54" rx="8.37"/><rect class="cls-3" x="180.27" y="162.51" width="2.58" height="29.16" rx="1.29"/><path class="cls-4" d="M317.13,340.28c0,27.9-23.66,50.51-52.84,50.51a54.41,54.41,0,0,1-25.41-6.22,31.73,31.73,0,0,1-38.1-.27A31.7,31.7,0,0,1,156,377.8a31.75,31.75,0,0,1-39.73,9,54.73,54.73,0,0,1-20.65,4c-29.18,0-52.84-22.61-52.84-50.51,0-22.65,15.61-41.82,37.11-48.22a57.82,57.82,0,0,1-2.2-15.78c0-41.55,44.53-75.23,99.47-75.23s99.47,33.68,99.47,75.23a57.39,57.39,0,0,1-1.85,14.49C298.92,295.41,317.13,315.81,317.13,340.28Z"/><rect class="cls-5" x="144.52" y="268.25" width="27.22" height="8.89" rx="4.44" transform="translate(416.28 91.78) rotate(85.09)"/><rect class="cls-6" x="195.22" y="262.1" width="28.71" height="8.03" rx="2.89" transform="translate(83.9 580.67) rotate(-120)"/><rect class="cls-6" x="137.12" y="343.95" width="28.71" height="8.03" rx="2.89" transform="translate(-188.42 516.78) rotate(-92.89)"/><rect class="cls-5" x="178.37" y="304.26" width="27.22" height="8.89" rx="4.44" transform="translate(-139.85 160.23) rotate(-34.02)"/><rect class="cls-6" x="103.26" y="259.01" width="28.71" height="8.03" rx="2.89" transform="translate(-168.98 233.37) rotate(-60)"/><rect class="cls-5" x="99.47" y="313.13" width="27.22" height="8.89" rx="4.44" transform="translate(374.31 104.51) rotate(70.4)"/><rect class="cls-5" x="206.48" y="345.91" width="27.22" height="8.89" rx="4.44" transform="translate(-13 692.2) rotate(-113.57)"/><rect class="cls-6" x="218.62" y="299.52" width="28.71" height="8.03" rx="2.89" transform="translate(-132.27 417.58) rotate(-69.83)"/><path class="cls-1" d="M261.8,244.88c-4.29,1.74-11.23-3.55-24.23-12.73-12.67-8.94-24.32-15.71-22.58-18.33s13.63,2.21,26.55,10.78S265,243.56,261.8,244.88Z"/><circle class="cls-7" cx="181.56" cy="201.05" r="17.28"/><ellipse class="cls-3" cx="186.12" cy="166.88" rx="2.39" ry="6.71" transform="translate(-58.03 220.55) rotate(-54.28)"/></svg>