<svg id="Layer_1" data-name="Layer 1" xmlns="http://www.w3.org/2000/svg" viewBox="0 0 232.42 153.36"><defs><style>.cls-1,.cls-2{fill:#fff;}.cls-2{stroke:#1d1d1b;stroke-miterlimit:10;}.cls-3{fill:#659dd5;}</style></defs><path class="cls-1" d="M176.28,36c-2.37,3.71-6.72-2-16.33-10.07-10-8.45-15.12-11.67-11.66-14.94,1.83-1.72,9.37,2.13,17.1,9S177.36,34.27,176.28,36Z"/><path class="cls-1" d="M71.79,129.25c1.59-4.1,7,.6,18,6.65,11.48,6.31,17.12,8.46,14.37,12.35-1.44,2.05-9.6-.24-18.54-5.48S71.06,131.12,71.79,129.25Z"/><path class="cls-2" d="M45.39,54.59h0l28.7-3.38c8-.94,15.23,5.7,14.59,13.41L87,84.71a9.47,9.47,0,0,1-.19,1.3l-1.36,6.65a11.36,11.36,0,0,1-11.7,8.86l-39.57-1h0l-12.31,1c-11.31,1-18.68-12.11-11.27-20h0a11.13,11.13,0,0,0,1.8-12.5l-1.7-3.6c-4.21-8.91,3.55-18,13.4-15.79Z"/><path class="cls-3" d="M48.49,50.54l.28-5.42,36.14-5.58a15.51,15.51,0,0,1,17.78,17L99.78,83a16.47,16.47,0,0,1-.28,1.71l-2,8.78a15.51,15.51,0,0,1-15,12.1L53.65,99.67l-20.77,6.21L17.4,107.74C3.17,109.45-5.56,92.59,4.05,82h0A15.51,15.51,0,0,0,6.8,65.47l-2-4.65A15.5,15.5,0,0,1,22.25,39.56Z"/><path class="cls-1" d="M44.59,51.76h0l27.49-4.33a11.75,11.75,0,0,1,13.48,13L83.3,80.55a11.55,11.55,0,0,1-.22,1.31l-1.52,6.7a11.86,11.86,0,0,1-11.45,9.26l-37.7.31h0L20.63,99.58C9.81,100.91,3.21,88.06,10.53,79.93h0a11.9,11.9,0,0,0,2.13-12.58l-1.51-3.54a11.87,11.87,0,0,1,13.3-16.25Z"/><path class="cls-3" d="M45.92,61.14h0l20.08-2c5.6-.56,10.75,4.07,10.39,9.34l-1,13.72a6.56,6.56,0,0,1-.11.89l-.88,4.53c-.71,3.64-4.06,6.09-8.1,5.93L38.6,92.44h0L30,93c-7.92.53-13.24-8.5-8.13-13.8h0A7.37,7.37,0,0,0,23,70.68l-1.23-2.49C18.68,62.05,24,55.88,30.94,57.55Z"/><path class="cls-3" d="M187.52,99.48l.4,5.2-36.82,9a14.47,14.47,0,0,1-17.92-14.37l.61-28a14.71,14.71,0,0,1,.12-1.62L135.23,60a14.48,14.48,0,0,1,13-12.48l39.66-.19,10.54-4.52,15.32-3.23c13.4-2.81,22.86,12.83,14.15,23.38h0a14.49,14.49,0,0,0-1.48,16.26l4.16,7.47a14.47,14.47,0,0,1-14.36,21.42Z"/><path class="cls-1" d="M187.52,99.48h0l-30.23,6.59c-7.6,1.65-15-4.13-15-11.67l.06-22.17a10.83,10.83,0,0,1,.08-1.27l.93-7.74a11.17,11.17,0,0,1,10.52-9.68l41.35-2.94h0l12.58-2.31c11-2,19.06,10.51,12,18.74h0a11,11,0,0,0-1,12.86l3.55,6c4.92,8.27-1.8,18-11.51,16.74Z"/><path class="cls-3" d="M187.82,93.62h0l-23.24,4.67C158.74,99.46,153,95,152.9,89.38l-.16-16.65a7.62,7.62,0,0,1,0-1l.65-5.81a8.25,8.25,0,0,1,8-7.17L193.29,57h0L203,55.34c8.46-1.42,14.78,8.08,9.44,14.2h0a8.06,8.06,0,0,0-.62,9.65l2.79,4.52c3.86,6.27-1.22,13.54-8.72,12.48Z"/><circle class="cls-3" cx="117.04" cy="76.68" r="76.68"/><path class="cls-1" d="M182.72,42c-1.88,3.48-6.77-4.43-19.23-15.13-13-11.15-20.51-14.75-17.31-17.54,1.68-1.46,10.93,4.24,21,13.26S183.58,40.43,182.72,42Z"/><path class="cls-1" d="M189.15,50.54c0,3.89-32.31,7-72.16,7s-72.15-3.15-72.15-7,32.3,0,72.15,0S189.15,46.65,189.15,50.54Z"/><path class="cls-1" d="M193,68c0,4.35-34,7.87-75.85,7.87S41.27,72.34,41.27,68s34,0,75.86,0S193,63.65,193,68Z"/><path class="cls-1" d="M192.1,94.49c0,4.66-33.39,8.44-74.57,8.44S43,99.15,43,94.49s33.39,0,74.58,0S192.1,89.83,192.1,94.49Z"/></svg>