<svg id="Layer_1" data-name="Layer 1" xmlns="http://www.w3.org/2000/svg" viewBox="0 0 125.24 451.25"><defs><style>.cls-1{fill:#cec3b8;}.cls-2{fill:#fee8d5;}.cls-3{fill:#ffe104;}.cls-4{fill:#bf1727;}.cls-5{fill:#fff;}</style></defs><rect class="cls-1" x="58.62" y="180.2" width="19.43" height="266.29" rx="9.71"/><rect class="cls-2" x="52.9" y="184.96" width="19.43" height="266.29" rx="9.71"/><path class="cls-3" d="M62.78,292.88h0c-34.35,0-62.45,5.81-62.45-26.7V59.1C.33,26.6,28.43,0,62.78,0h0c34.34,0,62.44,26.6,62.44,59.1V266.18C125.22,298.69,97.12,292.88,62.78,292.88Z"/><path class="cls-4" d="M62.78,123.37h0C5.69,121.7-1.89,129.31.33,99.16V59.47C.33,27,28.43.36,62.78.36h0c34.34,0,62.44,26.6,62.44,59.11V97.91C125.22,130.42,128.11,118,62.78,123.37Z"/><circle class="cls-4" cx="85.96" cy="148.19" r="7.94"/><circle class="cls-4" cx="44.97" cy="148.19" r="7.94"/><path class="cls-4" d="M62.88,154.87a50.21,50.21,0,0,0-4.35,10c-1.19,3.49-2.39,7-3.39,10.57a7.13,7.13,0,0,0,.18,5.26,3.8,3.8,0,0,0,4.61,1.8c2.58-.85,4.72-4.86,7.74-4s4.43-4,1.33-4.82c-3.25-.91-6.2.58-8.71,2.57-.49.39-1,1-1.5,1.27-.1.07-.52.36-.49.29.57-1.18,1.27.79,1.46.67-.12.07.13-1.43.15-1.51.2-.74.45-1.46.68-2.19,1.87-5.85,3.41-12,6.6-17.34,1.67-2.76-2.65-5.28-4.31-2.52Z"/><path class="cls-4" d="M42.44,199.64c5.33,6.66,14.17,8.92,22.34,7.61a29.31,29.31,0,0,0,12.06-4.67c3.65-2.62,5.35-6.49,6.92-10.57a2.5,2.5,0,1,0-4.82-1.33c-1.15,3-2.38,6.14-5.17,7.95a26.62,26.62,0,0,1-10.31,3.8c-6.54,1-13.29-1.09-17.49-6.33a2.51,2.51,0,0,0-3.53,0,2.55,2.55,0,0,0,0,3.54Z"/><path class="cls-4" d="M67.08,204.06a34.94,34.94,0,0,1,2.42-2.61c.22-.2.44-.41.67-.6l.31-.26c-.16.14-.24.18,0,0a11.22,11.22,0,0,1,1.53-.91c.37-.18-.08,0-.08,0a3.58,3.58,0,0,1,.36-.13,7,7,0,0,1,.82-.21c.06,0,.48-.12.13,0s.18,0,.22,0h1c-.35,0,0,0,.12,0l.35.1c.51.15,0,0,0,0s.66.33.64.35l-.22-.17c.16.16.17.16,0,0a.68.68,0,0,1-.18-.52,1.42,1.42,0,0,1-.09-.76l.64-1.11c-.32.42.47-.29.56-.25a1.76,1.76,0,0,0-.51.16l-1,.32-2,.64-4.08,1.27a2.5,2.5,0,0,0,1.33,4.83l5.78-1.82A8.09,8.09,0,0,0,79.07,201a3.22,3.22,0,0,0,.2-4.36,6.93,6.93,0,0,0-5.64-2.27,10.34,10.34,0,0,0-5.45,1.79,24.18,24.18,0,0,0-4.64,4.4,2.5,2.5,0,1,0,3.54,3.53Z"/><path class="cls-5" d="M115,36.07c-2.36,3.7-6.71-2-16.33-10.08-10-8.44-15.12-11.66-11.65-14.94,1.82-1.72,9.36,2.13,17.09,9S116.11,34.37,115,36.07Z"/></svg>