<svg xmlns="http://www.w3.org/2000/svg" viewBox="0 0 244.92 242.54"><defs><style>.cls-1,.cls-12,.cls-14,.cls-17,.cls-19,.cls-21,.cls-22,.cls-23,.cls-25,.cls-28,.cls-3,.cls-31,.cls-32,.cls-37,.cls-39,.cls-41,.cls-46,.cls-5,.cls-50,.cls-7,.cls-9{fill:none;}.cls-1{stroke:#feaebb;}.cls-1,.cls-12,.cls-14,.cls-17,.cls-19,.cls-21,.cls-22,.cls-23,.cls-25,.cls-28,.cls-3,.cls-31,.cls-32,.cls-37,.cls-39,.cls-41,.cls-46,.cls-5,.cls-50,.cls-51,.cls-54,.cls-56,.cls-7,.cls-9{stroke-miterlimit:10;stroke-width:2px;}.cls-2{fill:#ff93d9;}.cls-3{stroke:#ffa9e6;}.cls-4{fill:#abe9dd;}.cls-5{stroke:#abe9dd;}.cls-6{fill:#6fcfeb;}.cls-7{stroke:#ff7276;}.cls-18,.cls-8{fill:#ff7276;}.cls-9{stroke:#00b9e3;}.cls-10{font-size:7.25px;fill:#00addc;}.cls-10,.cls-18,.cls-20,.cls-48{font-family:CollectorComic-Bold, Collector Comic;font-weight:700;}.cls-11{fill:#ffad94;}.cls-12{stroke:#ffad94;}.cls-13{fill:#ffab4d;}.cls-14,.cls-51,.cls-54,.cls-56{stroke:#38d430;}.cls-15{fill:#38d430;}.cls-16{fill:#ffd637;}.cls-17{stroke:#ffd637;}.cls-18,.cls-20,.cls-48{font-size:8.5px;}.cls-19{stroke:#87e873;}.cls-20,.cls-45{fill:#87e873;}.cls-21{stroke:#c0ade7;}.cls-22{stroke:#a6ec8a;}.cls-23{stroke:#ffab4d;}.cls-24{fill:#ff7bd4;}.cls-25{stroke:#ff7bd4;}.cls-26{fill:#a6ec8a;}.cls-27{fill:#fff36e;}.cls-28{stroke:#ff40b4;}.cls-29{fill:#ff40b4;}.cls-30{fill:#ff8e6c;}.cls-31{stroke:#ffe800;}.cls-32{stroke:#6fcfeb;}.cls-33{fill:#99816d;}.cls-34{fill:#ffcc8b;}.cls-35{fill:#c0ade7;}.cls-36{fill:#ffe471;}.cls-37{stroke:#997adb;}.cls-38{fill:#997adb;}.cls-39{stroke:#ffe783;}.cls-40,.cls-51{fill:#b7eda3;}.cls-41{stroke:#ffbba5;}.cls-42{fill:#ffbba5;}.cls-43{fill:#9e968d;}.cls-44{fill:#00b9e3;}.cls-46{stroke:#f97fde;}.cls-47{fill:#f97fde;}.cls-48{fill:#ffe800;}.cls-49{fill:#00a8da;}.cls-50{stroke:#00a8da;}.cls-52{fill:#f7a950;}.cls-53{fill:#fff;}.cls-54{fill:#fdef71;}.cls-55{fill:#75cae7;}.cls-56{fill:#f299c1;}</style></defs><g id="Layer_2" data-name="Layer 2"><g id="Layer_1-2" data-name="Layer 1"><path class="cls-1" d="M140.91,28.92c-.83,12.89-13.75,24.7-28.16,23.6a26.11,26.11,0,0,1-23-19.12c-3.55-13.51,5-27.6,16.84-31.28C122.7-2.89,142,12.27,140.91,28.92Z" transform="translate(-1.87 -0.15)"/><path class="cls-1" d="M119.48,33.74A8.72,8.72,0,0,1,108,30.57a8.5,8.5,0,0,1,.87-9.69,8.63,8.63,0,0,1,11.49-1.28C124.63,23,124.14,31,119.48,33.74Z" transform="translate(-1.87 -0.15)"/><path class="cls-2" d="M105.12,20.2l-.79-3.4-.12-.47a1,1,0,1,0-1.92.53l.79,3.39.11.48a1,1,0,0,0,1.23.7,1,1,0,0,0,.7-1.23Z" transform="translate(-1.87 -0.15)"/><path class="cls-2" d="M108.3,9.57l-1.88,2.93-.27.42a1,1,0,0,0,.36,1.37,1,1,0,0,0,1.37-.36L109.76,11l.26-.42a1,1,0,0,0-.35-1.37,1,1,0,0,0-1.37.36Z" transform="translate(-1.87 -0.15)"/><path class="cls-2" d="M112.18,16l2.58-2.35.36-.33a1,1,0,0,0,0-1.42,1,1,0,0,0-1.41,0l-2.57,2.35-.37.33a1,1,0,0,0,0,1.42,1,1,0,0,0,1.41,0Z" transform="translate(-1.87 -0.15)"/><path class="cls-2" d="M117.54,12.81l1.38,3.2.19.45a1,1,0,0,0,1.37.36,1,1,0,0,0,.46-.59,1.21,1.21,0,0,0-.1-.77l-1.38-3.21-.19-.45a1,1,0,0,0-.6-.46,1.08,1.08,0,0,0-.77.1,1.06,1.06,0,0,0-.46.6,1.21,1.21,0,0,0,.1.77Z" transform="translate(-1.87 -0.15)"/><path class="cls-2" d="M109.05,6.66l3,1.67.43.24a1,1,0,0,0,1-1.73l-3.05-1.67-.43-.24a1,1,0,0,0-1,1.73Z" transform="translate(-1.87 -0.15)"/><path class="cls-2" d="M123.86,14.63l1.65-3.06.24-.45a1,1,0,0,0-1.73-1l-1.65,3.07-.23.44a1,1,0,1,0,1.72,1Z" transform="translate(-1.87 -0.15)"/><path class="cls-2" d="M127.42,16.75l-3.39.81-.48.11a1,1,0,0,0-.7,1.23,1,1,0,0,0,1.23.7l3.4-.81.47-.11a1,1,0,0,0-.53-1.93Z" transform="translate(-1.87 -0.15)"/><path class="cls-2" d="M131.68,19.49,130,22.56l-.24.44a1,1,0,1,0,1.73,1L133.16,21l.24-.45a1,1,0,0,0-1.72-1Z" transform="translate(-1.87 -0.15)"/><path class="cls-2" d="M126,22.34l.79,3.4.11.48a1,1,0,0,0,1.23.69,1,1,0,0,0,.7-1.23L128,22.29l-.11-.48a1,1,0,1,0-1.93.53Z" transform="translate(-1.87 -0.15)"/><path class="cls-2" d="M135.27,25l-1.46,3.16-.21.45a1.09,1.09,0,0,0-.1.77,1,1,0,0,0,1.83.24l1.46-3.16L137,26a1,1,0,0,0,.1-.77,1,1,0,0,0-1.83-.24Z" transform="translate(-1.87 -0.15)"/><path class="cls-2" d="M127.81,32.18l3.36.9.48.13a1,1,0,0,0,.53-1.93l-3.36-.9-.48-.13a1,1,0,1,0-.53,1.93Z" transform="translate(-1.87 -0.15)"/><path class="cls-2" d="M124.23,37l3.1-1.61.43-.22a1,1,0,0,0,.36-1.37,1,1,0,0,0-1.37-.36l-3.1,1.6-.43.23a1,1,0,0,0-.36,1.37,1,1,0,0,0,1.37.36Z" transform="translate(-1.87 -0.15)"/><path class="cls-2" d="M129.62,41.66l-2.43-2.49-.35-.35a1,1,0,0,0-1.41,1.41l2.43,2.49.35.35a1,1,0,1,0,1.41-1.41Z" transform="translate(-1.87 -0.15)"/><path class="cls-2" d="M119.46,42.15l.87-3.38.13-.47a1,1,0,0,0-1.93-.53l-.87,3.37-.13.48a1,1,0,1,0,1.93.53Z" transform="translate(-1.87 -0.15)"/><path class="cls-2" d="M122.33,47l3.1-1.61.44-.22a1,1,0,0,0,.36-1.37,1,1,0,0,0-1.37-.36l-3.1,1.6-.43.23a1,1,0,0,0-.36,1.37,1,1,0,0,0,1.36.36Z" transform="translate(-1.87 -0.15)"/><path class="cls-2" d="M110.33,39.3,113,41.52l.38.32a1.08,1.08,0,0,0,.71.29,1,1,0,0,0,.7-1.71l-2.68-2.22-.38-.32a1.08,1.08,0,0,0-.71-.29,1,1,0,0,0-.7,1.71Z" transform="translate(-1.87 -0.15)"/><path class="cls-2" d="M113.5,48.51l2.64-2.26.38-.32a1,1,0,0,0,.3-.71,1,1,0,0,0-1.71-.71l-2.64,2.26-.38.33a1,1,0,0,0-.29.71,1,1,0,0,0,.29.7,1,1,0,0,0,1.41,0Z" transform="translate(-1.87 -0.15)"/><path class="cls-2" d="M100.1,42.76l3.48.16.5,0a1,1,0,0,0,0-2l-3.48-.17-.5,0a1,1,0,0,0-1,1,1,1,0,0,0,1,1Z" transform="translate(-1.87 -0.15)"/><path class="cls-2" d="M107.58,34.69l-2.41,2.51-.34.36A1,1,0,0,0,106.24,39l2.41-2.51.35-.35a1,1,0,0,0-1.42-1.42Z" transform="translate(-1.87 -0.15)"/><path class="cls-2" d="M97.29,37.67,100.51,39l.45.19a1,1,0,0,0,.78-.1,1,1,0,0,0,.35-1.37,1.15,1.15,0,0,0-.59-.45l-3.22-1.34-.46-.19a1,1,0,0,0-.77.11,1,1,0,0,0-.46.59,1,1,0,0,0,.1.77,1.1,1.1,0,0,0,.6.46Z" transform="translate(-1.87 -0.15)"/><path class="cls-2" d="M100.83,33.54l3.36.91.49.13a1,1,0,0,0,.53-1.93l-3.36-.91-.48-.12a1,1,0,1,0-.54,1.92Z" transform="translate(-1.87 -0.15)"/><path class="cls-2" d="M96.91,33.69l1.88-2.93.27-.42a1,1,0,0,0-1.73-1l-1.88,2.93-.27.42a1,1,0,1,0,1.73,1Z" transform="translate(-1.87 -0.15)"/><path class="cls-2" d="M99.27,25.73,102,28l.38.31a1.06,1.06,0,0,0,.71.3,1,1,0,0,0,.71-1.71l-2.68-2.22-.38-.32A1.1,1.1,0,0,0,100,24a1,1,0,0,0-.71.29,1,1,0,0,0,0,1.42Z" transform="translate(-1.87 -0.15)"/><path class="cls-2" d="M95,28l-.46-3.45-.07-.49a1,1,0,0,0-1.23-.7,1.06,1.06,0,0,0-.6.46,1.2,1.2,0,0,0-.1.77L93,28.06l.06.49a1,1,0,0,0,.46.6,1,1,0,0,0,1.37-.36A1.14,1.14,0,0,0,95,28Z" transform="translate(-1.87 -0.15)"/><path class="cls-2" d="M98.85,18.67l-2.41,2.51-.34.36a1,1,0,0,0,0,1.41,1,1,0,0,0,1.41,0l2.41-2.51.35-.36a1,1,0,1,0-1.42-1.41Z" transform="translate(-1.87 -0.15)"/><path class="cls-2" d="M97.39,16.62l2.78-2.08.4-.3a1,1,0,0,0,.46-.59,1,1,0,0,0-.1-.77,1,1,0,0,0-1.37-.36L96.77,14.6l-.39.3a1,1,0,0,0-.46.59,1,1,0,0,0,.1.78,1,1,0,0,0,.59.45,1,1,0,0,0,.78-.1Z" transform="translate(-1.87 -0.15)"/><path class="cls-2" d="M100.71,10.4l3.46.29.5,0a1,1,0,0,0,1-1,1,1,0,0,0-1-1l-3.46-.29-.5,0a1,1,0,0,0-1,1,1,1,0,0,0,1,1Z" transform="translate(-1.87 -0.15)"/><path class="cls-2" d="M117.82,9.7l2.64-2.26.38-.33a1,1,0,0,0-1.42-1.41L116.78,8l-.38.33a1,1,0,0,0,1.42,1.41Z" transform="translate(-1.87 -0.15)"/><path class="cls-2" d="M129.41,15.59l2.79-2.09.39-.29a1.06,1.06,0,0,0,.46-.6,1,1,0,0,0-.1-.77,1,1,0,0,0-.6-.46,1,1,0,0,0-.77.1l-2.79,2.08-.39.3a1.06,1.06,0,0,0-.46.6,1,1,0,0,0,.1.77,1,1,0,0,0,.6.46,1,1,0,0,0,.77-.1Z" transform="translate(-1.87 -0.15)"/><path class="cls-2" d="M105,45.41,107.38,48l.34.37a1,1,0,0,0,1.41,0,1,1,0,0,0,0-1.41l-2.34-2.57-.34-.37A1,1,0,0,0,105,44a1,1,0,0,0,0,1.41Z" transform="translate(-1.87 -0.15)"/><path class="cls-2" d="M134.48,35.54l-3.46.3-.5,0a1,1,0,0,0-1,1,1,1,0,0,0,1,1l3.46-.3.5,0a1,1,0,0,0,1-1,1,1,0,0,0-1-1Z" transform="translate(-1.87 -0.15)"/><path class="cls-3" d="M121.4,233.28,100.27,219l-4.19,6.22,21.13,14.27a3.75,3.75,0,0,0,4.19-6.21Z" transform="translate(-1.87 -0.15)"/><path class="cls-3" d="M100.27,219l3.36-5a9,9,0,0,0-2.42-12.49L62.06,175.09a18.79,18.79,0,0,0-26,5h0a18.8,18.8,0,0,0,5,26l39.15,26.45a9,9,0,0,0,12.5-2.42l3.36-5Z" transform="translate(-1.87 -0.15)"/><path class="cls-3" d="M50.41,171.93c9.24,6.24,8.3,23.74-2.09,39.13" transform="translate(-1.87 -0.15)"/><path class="cls-3" d="M59.21,173.51c9.92,6.7,8.63,25.91-2.88,43" transform="translate(-1.87 -0.15)"/><path class="cls-3" d="M74.9,183.76c7.71,5.21,4.56,23.32-7,40.5" transform="translate(-1.87 -0.15)"/><path class="cls-3" d="M87,191.93c5.76,3.89,1,20.94-10.57,38.11" transform="translate(-1.87 -0.15)"/><path class="cls-4" d="M198.14,209.8A31.19,31.19,0,0,1,183,223.25l.77-.1a18.77,18.77,0,0,1-12.48-11.38,17.41,17.41,0,0,1-.88-3.2l-.1.77a26.3,26.3,0,0,1,15.77-13.08h-.53a17.37,17.37,0,0,1,11.8,11.24,16.08,16.08,0,0,1,.5,1.84l.12.65c0,.12,0,.35,0,.1l0,.22a1,1,0,0,0,1,1,1,1,0,0,0,1-1,19.31,19.31,0,0,0-9.46-14.11,19,19,0,0,0-3.27-1.51c-.32-.11-.64-.22-1-.3a2.61,2.61,0,0,0-1.6.21,28.49,28.49,0,0,0-8.92,4.86,27.4,27.4,0,0,0-6.59,7.75,3.08,3.08,0,0,0-.7,2c.06.34.13.69.22,1a20.64,20.64,0,0,0,1.26,3.56C172.4,219,177.34,223.6,183,225a2.63,2.63,0,0,0,1.82-.41c.7-.31,1.38-.65,2.05-1a33.11,33.11,0,0,0,4.58-3,32.73,32.73,0,0,0,7.33-8c.37-.58.72-1.17,1.06-1.77A1,1,0,0,0,198.14,209.8Z" transform="translate(-1.87 -0.15)"/><path class="cls-5" d="M169.45,208.84a15.91,15.91,0,0,1,9.56,5,16.21,16.21,0,0,1,4.5,10.22" transform="translate(-1.87 -0.15)"/><path class="cls-6" d="M9.28,90.13c1.47,1.82,3,3.63,4.43,5.45a1,1,0,0,0,1,.26A16.6,16.6,0,0,0,22,92l-1.67-.44a12.94,12.94,0,0,1,.09,3.35,11.67,11.67,0,0,1-.38,2c-.09.3-.18.6-.29.89a3.53,3.53,0,0,0-.31,1c0,.63.72,1.29,1.08,1.75s.88,1.09,1.35,1.61A32.28,32.28,0,0,0,24.71,105l.44-1.68a19.07,19.07,0,0,1-8.26.63,1,1,0,0,0-1.12.46c-1.25,2.42-2.49,4.85-3.73,7.27h1.72A12.89,12.89,0,0,1,12,105.35a1,1,0,0,0-.49-.86A24.46,24.46,0,0,0,2.85,102l.5,1.86L7,101.37l1.81-1.23a3.06,3.06,0,0,0,1-.77,3,3,0,0,0,.2-1.11q.51-4.42,1-8.83a1,1,0,0,0-2,0c-.37,3.14-.73,6.29-1.1,9.43l.5-.86-6,4.1a1,1,0,0,0,.5,1.86,22,22,0,0,1,7.63,2.25l-.5-.86A14.92,14.92,0,0,0,12,112.68a1,1,0,0,0,1.72,0c1.25-2.42,2.49-4.85,3.73-7.27l-1.13.46a21.49,21.49,0,0,0,9.33-.63,1,1,0,0,0,.44-1.67,30.87,30.87,0,0,1-4.87-5.28l.1.77a14.65,14.65,0,0,0,.84-8,1,1,0,0,0-1.67-.44,14.43,14.43,0,0,1-6.38,3.31l1,.25-4.43-5.44a1,1,0,0,0-1.41,0A1,1,0,0,0,9.28,90.13Z" transform="translate(-1.87 -0.15)"/><path class="cls-6" d="M12,98.48c0,.14.06.27.08.41l0-.26a5,5,0,0,1,0,1.22l0-.27a4.62,4.62,0,0,1-.31,1.16l.1-.24a.61.61,0,0,0-.05.12,1,1,0,0,0-.1.77,1,1,0,0,0,.45.59,1,1,0,0,0,.78.1.93.93,0,0,0,.59-.45,7.85,7.85,0,0,0,.32-.8,6.39,6.39,0,0,0,.2-1.06A5.56,5.56,0,0,0,13.88,98a1,1,0,1,0-1.93.53Z" transform="translate(-1.87 -0.15)"/><path class="cls-6" d="M15.35,100.13a2.18,2.18,0,0,1,0,.51l0-.27a2,2,0,0,1-.14.54l.1-.24a3,3,0,0,1-.16.31.77.77,0,0,0-.12.37.78.78,0,0,0,0,.4,1.08,1.08,0,0,0,.46.59,1,1,0,0,0,.77.1,1.06,1.06,0,0,0,.6-.46,2,2,0,0,0,.14-.25,4.19,4.19,0,0,0,.22-.59,2.88,2.88,0,0,0,.08-1,1,1,0,0,0-.61-.92.74.74,0,0,0-.39-.08,1,1,0,0,0-.7.29l-.16.2a1,1,0,0,0-.14.51Z" transform="translate(-1.87 -0.15)"/><path class="cls-7" d="M107.62,187.33c-6.86,4.92-17.72,3.3-23.08-4.05a16.73,16.73,0,0,1,.61-20.38,17,17,0,0,1,22.68-2.6C116.24,166.67,116.13,181.23,107.62,187.33Z" transform="translate(-1.87 -0.15)"/><path class="cls-7" d="M113.67,169.91c1.2,6.57-1.79,12.93-7,15.55-7.28,3.66-17.16-.88-19.12-8.24-1.46-5.53,1.49-12.9,6.81-14.31,6.59-1.74,14.7,6.2,13.49,12-.73,3.48-5,7.14-9.32,6.29-3.64-.72-6.94-4.59-6.1-8.09a5.77,5.77,0,0,1,4.72-4.26c2-.27,4.69.56,5.6,2.88a4.54,4.54,0,0,1-1.69,5.5c-2,1.15-5,.32-5.61-1.41-.5-1.45.61-3.73,2-3.76.89,0,1.81.89,2.27,2.18" transform="translate(-1.87 -0.15)"/><path class="cls-8" d="M119.52,216l-4,2,1.47.6q-4.85-11.53-9.7-23l-2.75-6.54-.7,1.23a13.86,13.86,0,0,0,3.69-1.74l-1.37-.36q6.5,14.6,13,29.2a1,1,0,0,0,1.37.36,1,1,0,0,0,.36-1.37q-6.49-14.6-13-29.2a1,1,0,0,0-1.37-.36,12,12,0,0,1-3.21,1.54,1,1,0,0,0-.7,1.23l9.7,23,2.75,6.54a1,1,0,0,0,1.47.6l4-2C121.68,217.18,120.67,215.46,119.52,216Z" transform="translate(-1.87 -0.15)"/><path class="cls-9" d="M71.41,170c-3.46,2.72-9.53,1.15-10.9-2.38-1-2.53.64-5.59,2.83-7.15,2.51-1.8,6.74-2.34,9.14.16S74.13,167.84,71.41,170Z" transform="translate(-1.87 -0.15)"/><text class="cls-10" transform="translate(61.56 167.62) scale(1.03 1)">m</text><path class="cls-11" d="M208.63,180.3a10.73,10.73,0,0,0,2-6,2.93,2.93,0,0,0-3-3.09,9,9,0,0,0-5.08,2.16,11.06,11.06,0,0,0-3.51,4.86,6.11,6.11,0,0,0,.78,5.91,6.93,6.93,0,0,0,5.3,2.59c3.75,0,6.71-3.18,8.44-6.18a18.57,18.57,0,0,0,2.09-5.41,15.29,15.29,0,0,0,.37-4.57,5.8,5.8,0,0,0-2.8-4.72,8.38,8.38,0,0,0-5.5-.47c-7.69,1.41-14.31,7.95-15.12,15.85a12.6,12.6,0,0,0,3.42,10,9.46,9.46,0,0,0,5.15,2.94,9.79,9.79,0,0,0,5.47-.73,23.2,23.2,0,0,0,8-6.42,40.66,40.66,0,0,0,4.9-6.55,18.14,18.14,0,0,0,2.62-11.14,14.86,14.86,0,0,0-3.76-8.53c-5.94-6-15.3-1.36-20.68,3-5.1,4.13-9.45,10.14-10,16.85a17.92,17.92,0,0,0,3.35,11.7,7.66,7.66,0,0,0,1.6,1.8l3.2,2.32,6.39,4.65,6.29,4.58a1,1,0,0,0,1,0,50,50,0,0,0,22.23-25.08,49.37,49.37,0,0,0,2.33-7.44,1,1,0,0,0-.46-1.13l-17.32-12.82a1,1,0,0,0-1.36.35,1,1,0,0,0,.35,1.37l17.32,12.82-.46-1.13A47.54,47.54,0,0,1,208.62,204h1L198,195.56l-2.89-2.1a8.83,8.83,0,0,1-1.92-1.61,17.33,17.33,0,0,1-2.29-3.92,15.73,15.73,0,0,1-.36-11,20.15,20.15,0,0,1,1.92-4.1c.33-.54.68-1.08,1.05-1.59s.54-.74.8-1.07a30.66,30.66,0,0,1,7.06-6.53c2.77-1.84,6-3.44,9.37-3.61a8,8,0,0,1,7.56,3.94,14.37,14.37,0,0,1,2,8c-.32,5.62-4,10.34-7.61,14.34-2,2.21-4.37,4.46-7.23,5.5a7.31,7.31,0,0,1-4.5.3,8.36,8.36,0,0,1-4.19-3c-4.35-5.59-1.69-13.22,3.08-17.62a16.64,16.64,0,0,1,8.79-4.21c1.43-.22,3.18-.23,4.3.85a5.13,5.13,0,0,1,1.13,4,16.78,16.78,0,0,1-3,8.63c-1.63,2.38-4.37,4.81-7.45,3.78a4.25,4.25,0,0,1-3-3.56,7,7,0,0,1,1.88-4.7,9.11,9.11,0,0,1,3.91-2.74,2.61,2.61,0,0,1,1.77-.19c.32.16.42.55.45,1a8.78,8.78,0,0,1-1.73,5c-.69,1.09,1,2.09,1.73,1Z" transform="translate(-1.87 -0.15)"/><circle class="cls-12" cx="206.23" cy="197.27" r="0.75"/><circle class="cls-12" cx="211.75" cy="197.31" r="0.75"/><circle class="cls-12" cx="223.26" cy="172.46" r="0.75"/><circle class="cls-12" cx="225.14" cy="178.44" r="0.75"/><circle class="cls-12" cx="219.93" cy="183.37" r="0.75"/><circle class="cls-12" cx="217.78" cy="189.63" r="0.75"/><circle class="cls-12" cx="212.71" cy="191.87" r="0.75"/><path class="cls-13" d="M228.71,130.48a4.45,4.45,0,0,0-4.22-1.2,6.91,6.91,0,0,0-3.6,3.12l1.57-.2a6.67,6.67,0,0,0-4-2.41,4.55,4.55,0,0,0-3.6,1.17c-2.08,1.89-1.55,5.18-.46,7.46a14.41,14.41,0,0,0,7.26,6.74,2.8,2.8,0,0,0,1,.36c.49,0,1-.44,1.35-.72a18.46,18.46,0,0,0,2-1.72,23.16,23.16,0,0,0,2.74-3.35,8.25,8.25,0,0,0,1.78-5.4,6.2,6.2,0,0,0-1.89-3.85c-.94-.88-2.36.53-1.42,1.42a4.28,4.28,0,0,1,1.29,2.29,5.52,5.52,0,0,1-1,3.8,17.77,17.77,0,0,1-5.38,5.67l.77-.11a12.68,12.68,0,0,1-6.87-6.21,7.51,7.51,0,0,1-.63-2.59,2.63,2.63,0,0,1,2-2.95.8.8,0,0,1,.15,0c.16,0-.16,0,0,0l.34,0a2.53,2.53,0,0,1,1.14.28,6.25,6.25,0,0,1,2,1.58,1,1,0,0,0,1.57-.2,5.2,5.2,0,0,1,2.27-2.16,2.34,2.34,0,0,1,2.4.65C228.23,132.77,229.65,131.36,228.71,130.48Z" transform="translate(-1.87 -0.15)"/><path class="cls-13" d="M216.67,133.43a5.19,5.19,0,0,0,1.34,5,1,1,0,0,0,1.41-1.42l-.18-.2-.11-.13.07.09-.06-.08a6.59,6.59,0,0,1-.49-.86s.09.21,0,.08l-.06-.16c0-.09-.06-.19-.08-.28a2.82,2.82,0,0,1-.07-.31c0-.13,0,0,0,.08s0-.11,0-.16a4.21,4.21,0,0,1,0-.71c0-.13,0,.22,0,0a1.1,1.1,0,0,1,0-.16c0-.1,0-.2.08-.31a1,1,0,1,0-1.93-.53Z" transform="translate(-1.87 -0.15)"/><path class="cls-14" d="M25.26,162.52c0-5.84,7.84-9.25,9.68-10.05,6-2.63,15.94-3.7,18.73,1.23a7.86,7.86,0,0,1-.93,8.32c-2.76,3.32-6.59.85-14,4-4.91,2.07-6.08,4.36-8.68,3.69S25.24,165.55,25.26,162.52Z" transform="translate(-1.87 -0.15)"/><path class="cls-15" d="M35.43,155.1a11.42,11.42,0,0,0-7.37,5.74,1,1,0,0,0,1.73,1,6.93,6.93,0,0,1,.43-.75c.08-.13.16-.26.25-.39l.18-.24.06-.09a9.5,9.5,0,0,1,1.75-1.72,9.74,9.74,0,0,1,2-1.17c-.18.08.1,0,.11,0l.2-.08.44-.14A6.44,6.44,0,0,1,36,157a1,1,0,1,0-.53-1.93Z" transform="translate(-1.87 -0.15)"/><path class="cls-16" d="M165.27,233.78l-5.33.39,1,1-.09-28.67,0-8.23-1,1a17,17,0,0,0,4.83-.25l-1.27-1q.35,14.3.68,28.6l.2,8.12a1,1,0,0,0,2,0l-.69-28.61-.19-8.11a1,1,0,0,0-1.27-1,15,15,0,0,1-4.29.18,1,1,0,0,0-1,1l.09,28.67,0,8.23a1,1,0,0,0,1,1l5.33-.39C166.54,235.68,166.55,233.68,165.27,233.78Z" transform="translate(-1.87 -0.15)"/><path class="cls-17" d="M142.34,183.53c2.49,10.1,13.24,16.55,22.65,14.38,6.67-1.54,11.67-7.19,13.62-13.71a35.81,35.81,0,0,1-36.27-.67Z" transform="translate(-1.87 -0.15)"/><path class="cls-17" d="M179.41,176.45a17.3,17.3,0,0,0-2.24-7.13A19.55,19.55,0,0,0,152,162.05a19,19,0,0,0-9.89,13.77,38.51,38.51,0,0,0,37.34.63Z" transform="translate(-1.87 -0.15)"/><path class="cls-16" d="M179.11,185.06a6.49,6.49,0,0,0,1.45-.89,4.54,4.54,0,0,0,.54-.76,8.93,8.93,0,0,0,1-2.38,8.81,8.81,0,0,0-.56-5.79,1,1,0,0,0-1.37-.36c-.42.24-.84.48-1.27.71-1.14.6-.13,2.33,1,1.72.43-.22.85-.46,1.27-.7l-1.37-.36s.06.09.06.13c0-.13,0-.07,0,0s.09.24.13.36a7.66,7.66,0,0,1,.25.94,6.3,6.3,0,0,1,0,2.25,6.78,6.78,0,0,1-1.3,3l.36-.36c-.41.25-.83.5-1.25.73a1,1,0,0,0,1,1.73Z" transform="translate(-1.87 -0.15)"/><path class="cls-16" d="M142.58,175c-.45-.26-.89-.53-1.33-.8a1,1,0,0,0-1.37.36,8.64,8.64,0,0,0-.91,5.42,8.27,8.27,0,0,0,.92,2.65,5.58,5.58,0,0,0,.43.71,5.12,5.12,0,0,0,1.51,1.09c1.1.67,2.11-1.06,1-1.73-.39-.23-.77-.47-1.15-.72l.36.35a6.38,6.38,0,0,1-1.19-3.37,6.65,6.65,0,0,1,.24-2.13,4.11,4.11,0,0,1,.15-.46c0-.06.16-.42.08-.24.09-.19.18-.38.28-.56l-1.37.36c.44.27.88.54,1.33.79a1,1,0,0,0,1-1.72Z" transform="translate(-1.87 -0.15)"/><path class="cls-7" d="M234.87,161.33c-3.94,3.19-10.84,1.34-12.39-2.79-1.12-3,.73-6.55,3.21-8.39,2.85-2.11,7.66-2.74,10.39.19C239,153.43,238,158.83,234.87,161.33Z" transform="translate(-1.87 -0.15)"/><text class="cls-18" transform="translate(223.92 158.6)">m</text><path class="cls-19" d="M122.64,196.23c-5.08,0-9.24-5.84-7.82-10,1-3,4.72-4.6,7.81-4.44,3.54.18,7.66,2.74,7.91,6.73C130.81,192.73,126.61,196.26,122.64,196.23Z" transform="translate(-1.87 -0.15)"/><text class="cls-20" transform="translate(115.41 188.33) rotate(39.36)">m</text><path class="cls-21" d="M84.91,8.46a4.68,4.68,0,0,0-3.75-.17,6,6,0,0,0-3.51,2.64A5.92,5.92,0,0,0,77,15.09c.44,2,2.07,4.26,4.25,4.42,2.84.21,5-3.27,5.34-5.92C86.61,13.23,87,9.8,84.91,8.46Z" transform="translate(-1.87 -0.15)"/><path class="cls-22" d="M96.43,233.69c-1.32.85-.47,2.72-.3,3.08A3.43,3.43,0,0,0,98.71,239a4.55,4.55,0,0,0,1.8-.16c1.36-.37,2.59-1.28,2.57-2.37,0-1.42-1.94-2.23-2.53-2.48C100.24,233.82,97.8,232.81,96.43,233.69Z" transform="translate(-1.87 -0.15)"/><path class="cls-13" d="M81.25,77.33a20.94,20.94,0,0,1-11.4,6,15.17,15.17,0,0,1-5.89.1,6.74,6.74,0,0,1-4.58-3.67,6.49,6.49,0,0,1,.52-6.21A12.72,12.72,0,0,1,64,70.06a19.94,19.94,0,0,1,13.21-2.78,8.11,8.11,0,0,1,3.17.91,5.65,5.65,0,0,1,2.33,2.64,6,6,0,0,1-1.41,6.5c-.91.91.51,2.33,1.41,1.41a8.18,8.18,0,0,0,2.28-7.23,7.63,7.63,0,0,0-4.72-5.58A12.13,12.13,0,0,0,77,65.25a21,21,0,0,0-3.36-.15,22.06,22.06,0,0,0-8.66,2.14,21.16,21.16,0,0,0-5.34,3.65,8.64,8.64,0,0,0-2.72,7.17,8.48,8.48,0,0,0,3.83,6.17,10.81,10.81,0,0,0,6.57,1.42,22.91,22.91,0,0,0,15.39-6.91C83.56,77.82,82.15,76.4,81.25,77.33Z" transform="translate(-1.87 -0.15)"/><path class="cls-13" d="M58.52,76.33a10.56,10.56,0,0,0-4.41-2.45c-1.68-.42-3.83-.67-5.31.43s-2.28,3.43-.94,4.91,3.8,1.2,5.44.32c1.14-.61.13-2.28-1-1.72C49.87,79,47,81.69,48.37,84.63a3.38,3.38,0,0,0,3.54,1.84,8.21,8.21,0,0,0,4.55-2.28c1-.88-.44-2.21-1.42-1.42C53.13,84.33,52,87,53.1,89.29a2.86,2.86,0,0,0,4.23,1.25,7.43,7.43,0,0,0,3.07-3.8A10.58,10.58,0,0,0,61,82.38c-.08-1.28-2.08-1.29-2,0a9.34,9.34,0,0,1-.43,3.6,5.22,5.22,0,0,1-1.31,2.08c-.4.4-1,1-1.64,1-1-.07-1.08-1.79-.88-2.48a5.16,5.16,0,0,1,1.73-2.39L55,82.77c-.94.86-4.15,3-4.93.85-.65-1.79,1.85-3.43,3.19-4.08l-1-1.72a3.45,3.45,0,0,1-2,.46c-.37,0-.9-.18-1.07-.55a1.53,1.53,0,0,1,.3-1.34,1.91,1.91,0,0,1,1.34-.82,7.51,7.51,0,0,1,3.48.48,8.34,8.34,0,0,1,2.75,1.7c1,.86,2.37-.55,1.41-1.42Z" transform="translate(-1.87 -0.15)"/><path class="cls-13" d="M82.54,67.76a6.83,6.83,0,0,1,3.13-4,5.2,5.2,0,0,1,2.58-.87A1.69,1.69,0,0,1,90,64.27c0,1-2,.9-2.65,1.52a1.05,1.05,0,0,0,.91,1.75A17.2,17.2,0,0,0,90,67.28a4.44,4.44,0,0,1,2.26.15A1.68,1.68,0,0,1,93,69.16c-.08.61-.4.77-1,.84a7,7,0,0,1-2.1-.15c-.55-.09-1.22-.33-1.74,0-.92.53-.48,1.64.34,1.94A10.64,10.64,0,0,1,91.71,73c.43.33.87,1,.46,1.54s-1.4.59-2,.61a7.34,7.34,0,0,1-5.1-1.92c-1-.85-2.38.56-1.41,1.41a9.2,9.2,0,0,0,8,2.34,3,3,0,0,0,2.65-3.31,3.76,3.76,0,0,0-2.21-2.8,11.09,11.09,0,0,0-1.91-.74l-.7-.2-.23-.07a.45.45,0,0,0-.11,0c.1,0,.38.27.46.38l.13.5h0l-.13.5h0l-.36.36c-.44.08-.57.12-.38.12h-.09a1.75,1.75,0,0,0,.33.06c.29,0,.59.11.89.15a8.26,8.26,0,0,0,2.16.12,3.28,3.28,0,0,0,2.14-.91A3.22,3.22,0,0,0,95,68.6a3.58,3.58,0,0,0-3.4-3.34,9.43,9.43,0,0,0-2.31.11c-.3,0-.6.1-.9.15l-.18,0c-.12,0-.11,0,.05,0h-.11q-.29,0,.39.12l.36.36v0l.1.77v0l-.26.45c-.07.08-.36.16-.25.16a1.42,1.42,0,0,0,.22-.07l.67-.2A5.2,5.2,0,0,0,91,66.26a2.74,2.74,0,0,0,.25-3.88c-2.1-2.84-6.13-1.13-8.23.82a9.07,9.07,0,0,0-2.42,4,1,1,0,0,0,1.93.53Z" transform="translate(-1.87 -0.15)"/><path class="cls-23" d="M72.2,66.2a12.91,12.91,0,0,0,1.19,7,13.28,13.28,0,0,0,6.94,6.4" transform="translate(-1.87 -0.15)"/><path class="cls-23" d="M72.19,83.87a14.66,14.66,0,0,1-7.73-15.26" transform="translate(-1.87 -0.15)"/><path class="cls-8" d="M20,134a8,8,0,0,1,.88,1.9,4.4,4.4,0,0,0,1.53,2,5,5,0,0,0,3.54,1,4.24,4.24,0,0,0,3.41-3,6.84,6.84,0,0,0-.54-4.86,14,14,0,0,0-15.35-8.46,13.64,13.64,0,0,0-8.15,4.74A12.79,12.79,0,0,0,2.7,137c.36,2.82,1.56,5.49,2.49,8.15l4.25,12.14L18,181.65,19,184.71a1,1,0,0,0,1.23.7l6.36-2.22a1,1,0,0,0,.69-1.23q-4.21-12.08-8.44-24.16l-4.24-12.13-2.1-6a9,9,0,0,1-.76-2.8,5.85,5.85,0,0,1,.39-2.15,4,4,0,0,1,3.45-2.7A5.52,5.52,0,0,1,20,134c.82,1,2.23-.44,1.41-1.42-2.25-2.67-6.48-3.56-9.27-1.22a6.92,6.92,0,0,0-2.27,4.45,6.15,6.15,0,0,0,.18,2.7l1.16,3.3,9.06,25.92,5.15,14.73.69-1.23-6.35,2.22,1.23.7c-5.19-14.86-10.29-29.75-15.58-44.57a12.81,12.81,0,0,1-.69-6.07A10.34,10.34,0,0,1,9.5,126.2a12,12,0,0,1,8.41-1.73,12,12,0,0,1,6.82,3.8,12.24,12.24,0,0,1,2.38,3.89c.5,1.36.81,2.93-.24,4.13-.92,1-2.37.69-3.37,0a2.71,2.71,0,0,1-.89-1.29,8.38,8.38,0,0,0-1.23-2.35A1,1,0,1,0,20,134Z" transform="translate(-1.87 -0.15)"/><line class="cls-7" x1="25.82" y1="131.06" x2="10" y2="123.76"/><line class="cls-7" x1="14.43" y1="130.88" x2="5.3" y2="126.67"/><line class="cls-7" x1="8.95" y1="133.64" x2="2.66" y2="130.74"/><line class="cls-7" x1="9.27" y1="139.17" x2="1.73" y2="135.69"/><line class="cls-7" x1="11.86" y1="145.98" x2="3.36" y2="142.06"/><line class="cls-7" x1="14.1" y1="152.39" x2="5.6" y2="148.47"/><line class="cls-7" x1="16.45" y1="159.1" x2="7.97" y2="155.19"/><line class="cls-7" x1="18.69" y1="165.51" x2="10.18" y2="161.59"/><line class="cls-7" x1="21.13" y1="172.48" x2="12.62" y2="168.56"/><line class="cls-7" x1="23.37" y1="178.89" x2="14.86" y2="174.97"/><line class="cls-7" x1="20.85" y1="183.35" x2="17.2" y2="181.67"/><line class="cls-7" x1="25.54" y1="136" x2="18.21" y2="132.62"/><path class="cls-24" d="M166.13,34.61c1.06,1.36,2.87,2.2,3,4.08a3.21,3.21,0,0,1-2.53,3.4c-1.67.38-3.16-.81-4.38-1.81a16,16,0,0,1-3.44-3.94,14.75,14.75,0,0,1-2.14-9.67,14.72,14.72,0,0,1,4.95-9A13,13,0,0,1,171,14.32a15.05,15.05,0,0,1,7.93,3l.24.18s-.08-.07.07.05l.32.27c.73.61,1.48,1.21,2.22,1.82l5.68,4.67,11.28,9.27,22.65,18.61,2.8,2.3V53.07L219,59.42h1.41L192.84,36.79,179,25.39c-1.1-.9-2.18-1.82-3.29-2.71a7.65,7.65,0,0,0-2.76-1.46,7.86,7.86,0,0,0-6,.75,6.2,6.2,0,0,0-3.21,5.5A11.61,11.61,0,0,0,166,34.4a1,1,0,0,0,1.73-1,10,10,0,0,1-2-5.51,4.28,4.28,0,0,1,2.07-4.11,5.84,5.84,0,0,1,5-.5,8.29,8.29,0,0,1,2.47,1.63l3.27,2.69,25.81,21.21,14.64,12a1,1,0,0,0,1.41,0l5.22-6.35a1,1,0,0,0,0-1.41L201.12,33,189,23,182.8,17.9c-1-.83-2-1.7-3.05-2.45a16.7,16.7,0,0,0-9.33-3.15A15.23,15.23,0,0,0,160,16.42a16.37,16.37,0,0,0-2.82,21.08,17.7,17.7,0,0,0,3.87,4.36c1.55,1.25,3.26,2.48,5.34,2.28a5.29,5.29,0,0,0,4.43-3.29,5.36,5.36,0,0,0-1.1-5.52c-.31-.33-.71-.59-1-.9a8.9,8.9,0,0,1-1.13-1.24,1,1,0,0,0-1.42,0A1,1,0,0,0,166.13,34.61Z" transform="translate(-1.87 -0.15)"/><line class="cls-25" x1="158.7" y1="39.71" x2="157.01" y2="18.84"/><line class="cls-25" x1="163.2" y1="25.46" x2="162.32" y2="14.68"/><line class="cls-25" x1="168.79" y1="21.78" x2="168.11" y2="13.36"/><line class="cls-25" x1="174.99" y1="24.48" x2="174.17" y2="14.37"/><line class="cls-25" x1="181.72" y1="30.32" x2="180.79" y2="18.92"/><line class="cls-25" x1="188.12" y1="35.59" x2="187.2" y2="24.18"/><line class="cls-25" x1="194.84" y1="41.1" x2="193.92" y2="29.73"/><line class="cls-25" x1="201.24" y1="46.37" x2="200.32" y2="34.96"/><line class="cls-25" x1="208.21" y1="52.1" x2="207.29" y2="40.69"/><line class="cls-25" x1="214.62" y1="57.36" x2="213.7" y2="45.95"/><line class="cls-25" x1="220.79" y1="56.35" x2="220.4" y2="51.46"/><line class="cls-25" x1="164.61" y1="42.98" x2="163.67" y2="31.27"/><path class="cls-26" d="M146.06,80.83A35.52,35.52,0,0,1,128,83.16l.44.26a10.58,10.58,0,0,1-1.89-13.32l-.36.36a29.57,29.57,0,0,1,18.35-1.75l-.44-.26a9.84,9.84,0,0,1,1.4,12.84c-.75,1.06,1,2.06,1.72,1a11.76,11.76,0,0,0,.16-13.06,12.54,12.54,0,0,0-1.57-1.92,1.92,1.92,0,0,0-.88-.57c-.55-.15-1.12-.23-1.69-.33a31.58,31.58,0,0,0-17,1.86,2.89,2.89,0,0,0-1.46.88,7.17,7.17,0,0,0-.47.86,13.22,13.22,0,0,0-1.06,3,12.5,12.5,0,0,0,1.1,8.26A13.59,13.59,0,0,0,126,83.85a3,3,0,0,0,1.83,1.3,37.1,37.1,0,0,0,18.73-2.39,1,1,0,0,0,.7-1.23A1,1,0,0,0,146.06,80.83Z" transform="translate(-1.87 -0.15)"/><path class="cls-22" d="M125.65,69.59a9.89,9.89,0,0,1,2,14.54" transform="translate(-1.87 -0.15)"/><path class="cls-27" d="M118.1,162.43l6.46,2.73a1.06,1.06,0,0,0,1.22-.16,16.45,16.45,0,0,0,4.61-6.79l-1.83.24a13.24,13.24,0,0,1,1.7,2.87,12.08,12.08,0,0,1,.65,2c.15.61.15,1.29.31,1.89s1.09.9,1.64,1.15,1.38.59,2.08.85a34.51,34.51,0,0,0,4,1.19l-.44-1.67a19.08,19.08,0,0,1-7,4.41,1,1,0,0,0-.73,1l.12,8.17,1.5-.87a12.88,12.88,0,0,1-4.54-4.76,1,1,0,0,0-.86-.5,23.75,23.75,0,0,0-8.57,1.74l1.13,1.47,2-3.87,1-1.94a3.07,3.07,0,0,0,.46-1,2.15,2.15,0,0,0-.28-1.08c-1.06-2.73-2.13-5.45-3.19-8.17a1,1,0,0,0-1.23-.7,1,1,0,0,0-.7,1.23q1.73,4.42,3.46,8.85l.1-.77-3.42,6.45c-.36.69.27,1.82,1.13,1.47a22.23,22.23,0,0,1,8-1.67l-.86-.49a14.92,14.92,0,0,0,5.25,5.48,1,1,0,0,0,1.51-.86l-.12-8.17-.74,1a21.42,21.42,0,0,0,7.92-4.93,1,1,0,0,0-.44-1.67,31.22,31.22,0,0,1-6.78-2.39l.5.86a14.68,14.68,0,0,0-2.9-7.51,1,1,0,0,0-1.83.24,14.42,14.42,0,0,1-4.1,5.91l1.21-.16-6.46-2.73a1,1,0,0,0-1.37.36A1,1,0,0,0,118.1,162.43Z" transform="translate(-1.87 -0.15)"/><path class="cls-27" d="M124.6,168.66a1.63,1.63,0,0,1,.17.2l-.16-.2a4.39,4.39,0,0,1,.59,1l-.1-.24a4.84,4.84,0,0,1,.32,1.17l0-.26a1.84,1.84,0,0,1,0,.33,1,1,0,0,0,.3.7,1,1,0,0,0,.7.3,1,1,0,0,0,1-1,5.16,5.16,0,0,0-.37-1.74,6.14,6.14,0,0,0-1-1.68,1,1,0,0,0-.71-.29,1.05,1.05,0,0,0-.71.29,1.07,1.07,0,0,0-.29.71,1.1,1.1,0,0,0,.29.71Z" transform="translate(-1.87 -0.15)"/><path class="cls-27" d="M128.38,168.53a1.9,1.9,0,0,1,.2.37l-.1-.24a2.72,2.72,0,0,1,.15.54l0-.26a2,2,0,0,1,0,.43.71.71,0,0,0,.08.38.69.69,0,0,0,.21.32.75.75,0,0,0,.32.21.86.86,0,0,0,.39.09,1,1,0,0,0,.7-.3l.16-.2a1,1,0,0,0,.14-.5v-.31a4.63,4.63,0,0,0-.1-.65,5,5,0,0,0-.24-.6,2.09,2.09,0,0,0-.16-.29,1.07,1.07,0,0,0-.6-.45.68.68,0,0,0-.4,0,.65.65,0,0,0-.37.12,1,1,0,0,0-.46.59,1,1,0,0,0,.1.77Z" transform="translate(-1.87 -0.15)"/><path class="cls-28" d="M44.28,40.86c-1.63-7.1,6.92-13.5,8.94-15,6.59-4.94,18.42-9.1,23.23-3.91a9.77,9.77,0,0,1,1.27,10.39c-2.42,4.83-7.81,2.93-16,8.87-5.4,3.94-6.17,7.06-9.54,7C48.66,48.12,45.13,44.56,44.28,40.86Z" transform="translate(-1.87 -0.15)"/><path class="cls-29" d="M54.67,29.14a14.07,14.07,0,0,0-7.22,9,1,1,0,0,0,1.93.53,12.09,12.09,0,0,1,6.3-7.77,1,1,0,1,0-1-1.73Z" transform="translate(-1.87 -0.15)"/><path class="cls-30" d="M123.26,56a4.84,4.84,0,0,0-4.48-1A7.34,7.34,0,0,0,115,58.35l1.57-.2c-2.1-2.07-5.37-3.07-7.86-1.09-2.32,1.85-1.87,5.18-.6,7.52a14.93,14.93,0,0,0,8.1,6.48,7.39,7.39,0,0,0,.94.31c.58.12,1-.26,1.44-.58a19.39,19.39,0,0,0,2.19-1.86,23,23,0,0,0,2.87-3.57,8.18,8.18,0,0,0,1.73-5.65A5.8,5.8,0,0,0,123.26,56a1,1,0,0,0-1.41,0,1,1,0,0,0,0,1.41,4.16,4.16,0,0,1,1.47,2,5,5,0,0,1-.82,4,19.06,19.06,0,0,1-5.55,6l.77-.1a13.14,13.14,0,0,1-7.84-5.87,4.69,4.69,0,0,1-.44-1,7.13,7.13,0,0,1-.35-1.65A2.7,2.7,0,0,1,111.27,58c.1,0,.21,0,.31-.06s-.17,0-.15,0l.43,0a3.15,3.15,0,0,1,1.28.26,6.28,6.28,0,0,1,2,1.36,1,1,0,0,0,1.57-.2A5.69,5.69,0,0,1,119.17,57a2.51,2.51,0,0,1,1.71,0,2.88,2.88,0,0,1,.62.28l.26.16s.29.21.09.05a1,1,0,0,0,1.41,0A1,1,0,0,0,123.26,56Z" transform="translate(-1.87 -0.15)"/><path class="cls-30" d="M110.75,60.06a4.77,4.77,0,0,0,1.48,4.64,1,1,0,0,0,1.41,0,1,1,0,0,0,0-1.42,3.58,3.58,0,0,1-.43-.44l-.08-.09a1.08,1.08,0,0,1,.08.1l-.13-.2a3.1,3.1,0,0,1-.26-.47c0-.1,0-.14,0,.06,0-.05,0-.1,0-.14l-.09-.29c0-.11,0-.22-.07-.33s0,.26,0,0a.81.81,0,0,1,0-.16,3.51,3.51,0,0,1,0-.56.53.53,0,0,1,0-.12s0,.28,0,.11a1.42,1.42,0,0,1,0-.2,1,1,0,0,0-1.93-.53Z" transform="translate(-1.87 -0.15)"/><path class="cls-31" d="M52.27,55.29c-2.14,1.77-1,5.88-.72,6.65s1.19,4.29,3.9,4.88a5.4,5.4,0,0,0,2.84-.25c2.18-.72,4.18-2.63,4.23-5,.07-3.08-2.88-4.94-3.79-5.5C58.26,55.79,54.49,53.47,52.27,55.29Z" transform="translate(-1.87 -0.15)"/><path class="cls-26" d="M38.78,62.05c-.08.6-.28,1.59-.46,2.32a20.94,20.94,0,0,1-1,3.1A20.56,20.56,0,0,1,33,73.81a15.32,15.32,0,0,1-4.38,3.33,6.69,6.69,0,0,1-6.15-.36,6.48,6.48,0,0,1-3-5.32,13.82,13.82,0,0,1,1.27-5.39,19.85,19.85,0,0,1,8.78-9.77,8.22,8.22,0,0,1,3.08-1.18,5.69,5.69,0,0,1,3.54.76,6,6,0,0,1,2.72,5.9,1,1,0,0,0,.7,1.23,1,1,0,0,0,1.23-.7,8.19,8.19,0,0,0-2.18-7,7.7,7.7,0,0,0-7.44-1.93,13,13,0,0,0-3,1.41,22.37,22.37,0,0,0-2.57,1.75A21.45,21.45,0,0,0,20,63a21.22,21.22,0,0,0-2.4,6.53,8.82,8.82,0,0,0,1.9,7.39,8.41,8.41,0,0,0,7,2.83,11.26,11.26,0,0,0,6.14-2.87,22.89,22.89,0,0,0,8.14-14.78,1,1,0,0,0-1-1A1,1,0,0,0,38.78,62.05Z" transform="translate(-1.87 -0.15)"/><path class="cls-26" d="M19.82,74.65a10.34,10.34,0,0,0-5.9,1.18c-1.55.84-3,2-3.13,3.88-.12,1.71.93,3.66,2.82,3.68a4.66,4.66,0,0,0,4-2.92c.54-1.15-1.12-2.16-1.72-1-1.31,2.51-2.07,6.89,1.34,8.13,3.18,1.16,5.23-2.78,5.72-5.27.25-1.25-1.61-1.79-1.93-.53-.59,2.34-.11,5.19,2.16,6.44A2.86,2.86,0,0,0,27.36,87a7.26,7.26,0,0,0,.43-4.73,10.9,10.9,0,0,0-2.34-4.35c-.83-1-2.24.43-1.42,1.41a8.76,8.76,0,0,1,1.85,3.57,5.17,5.17,0,0,1,0,2.18c-.09.48-.22,1.24-.67,1.52s-1.08-.12-1.45-.4c.2.15-.16-.15-.14-.12a3.45,3.45,0,0,1-.26-.28A2.81,2.81,0,0,1,23,85a4.85,4.85,0,0,1-.14-1.78,3.82,3.82,0,0,1,.13-.86L21,81.79a6.92,6.92,0,0,1-1.24,3,1.83,1.83,0,0,1-1.86.89,1.18,1.18,0,0,1-.68-.44,2.4,2.4,0,0,1-.47-1.17,6.33,6.33,0,0,1,.84-3.63l-1.72-1c-.41.88-1.25,2-2.29,1.93a.81.81,0,0,1-.66-.57,2,2,0,0,1,0-1.6,5.14,5.14,0,0,1,2.73-2,8.62,8.62,0,0,1,4.15-.54,1,1,0,0,0,1-1,1,1,0,0,0-1-1Z" transform="translate(-1.87 -0.15)"/><path class="cls-26" d="M34.15,53.55a7,7,0,0,1,.07-5.21c.52-1.23,1.62-3.08,3.22-2.46s-.36,2-.63,3A1,1,0,0,0,38.41,50a8.71,8.71,0,0,0,1.23-1.2c1-1,2.47-2.13,3.58-.66a.88.88,0,0,1,0,1.36,6.18,6.18,0,0,1-1.66,1.11,5.85,5.85,0,0,0-1.36.76A1,1,0,0,0,41,53.13a7,7,0,0,0,1.46-.49,6.18,6.18,0,0,1,2.11-.45,1.68,1.68,0,0,1,.93.26c.09,0-.08-.07-.07-.06a2.39,2.39,0,0,1,.23.22,1,1,0,0,1,.21.4c.16.74-.81,1.5-1.31,1.9a7.45,7.45,0,0,1-5.31,1.42c-1.28-.11-1.28,1.89,0,2a9.08,9.08,0,0,0,7.63-2.86,3.1,3.1,0,0,0,.28-4.17,3.56,3.56,0,0,0-3.24-1.07,10.17,10.17,0,0,0-2.11.52L41,51l-.25.1c-.24.11-.31-.11.3,0l.44.26h0l.29.7h0l-.13.51c-.06.1-.42.31-.19.22.08,0,.17-.09.25-.13l.73-.36a9.84,9.84,0,0,0,1.73-1.12,3,3,0,0,0,.57-4.36A3.58,3.58,0,0,0,40,46a9.17,9.17,0,0,0-1.82,1.47l-.63.65c-.07.08-.16.15-.22.23s.2-.1,0,0l.5-.13h0l.5.14h0l.36.36v0l.14.5c-.09.63-.14.41,0,.21s.17-.23.26-.35a6.58,6.58,0,0,0,.61-.94,2.88,2.88,0,0,0,.19-2.63C39,43.72,36.51,43.33,35,44.26a7.39,7.39,0,0,0-2.87,4.12,8.7,8.7,0,0,0,.14,5.7c.44,1.2,2.37.68,1.93-.53Z" transform="translate(-1.87 -0.15)"/><path class="cls-22" d="M24.89,58.37A12.86,12.86,0,0,0,30,63.25a13.28,13.28,0,0,0,9.38,1" transform="translate(-1.87 -0.15)"/><path class="cls-22" d="M35.42,72.56a14.7,14.7,0,0,1-15.31-7.63" transform="translate(-1.87 -0.15)"/><path class="cls-26" d="M83.67,49.76l.16,0h0l.59-.06a14.67,14.67,0,0,1,6.58,1,16,16,0,0,1,7.76,6.9,13.46,13.46,0,0,1,1.2,2.61c.41,1.22,2.34.7,1.92-.53a17.84,17.84,0,0,0-15.06-12,14.63,14.63,0,0,0-3.68.14,1,1,0,0,0-.7,1.23,1,1,0,0,0,1.23.7Z" transform="translate(-1.87 -0.15)"/><path class="cls-32" d="M72.55,57.89a8.7,8.7,0,0,1-6.55-10,8.49,8.49,0,0,1,7-6.7,8.63,8.63,0,0,1,9.47,6.64C83.53,53.22,77.89,58.88,72.55,57.89Z" transform="translate(-1.87 -0.15)"/><path class="cls-6" d="M71.81,46.57l.11-.1L72,46.4c.13-.12-.21.15-.05,0s.4-.28.61-.4l.42-.21c.11,0-.14.05,0,0l.25-.09.56-.14.13,0,.31,0a3.74,3.74,0,0,1,2,.47l.41.26.18.13h0c.13.12.27.24.4.38a1,1,0,0,0,1.41,0,1,1,0,0,0,0-1.42,5.86,5.86,0,0,0-4.37-1.82,6.14,6.14,0,0,0-3.89,1.61,1,1,0,1,0,1.42,1.41Z" transform="translate(-1.87 -0.15)"/><path class="cls-33" d="M102.52,69.75c-2.47.63-4.25,2.8-5.2,5.07a12.71,12.71,0,0,0,0,9.45,1,1,0,0,0,1.23.7l14.55-4.58a1,1,0,0,0,.7-1.23,12.81,12.81,0,0,0-4.55-7.52,8.18,8.18,0,0,0-6.69-1.89c-1.25.29-.72,2.21.54,1.93a4.74,4.74,0,0,1,2.37.16,7.72,7.72,0,0,1,2.6,1.4,11,11,0,0,1,3.8,6.45l.7-1.23L98,83l1.23.7a11,11,0,0,1-.1-8,6.42,6.42,0,0,1,4-4A1,1,0,0,0,102.52,69.75Z" transform="translate(-1.87 -0.15)"/><path class="cls-33" d="M102.07,83.58A7.79,7.79,0,0,0,99.6,72.72c-1.09-.68-2.09,1-1,1.73l.22.14c.06,0,.36.27.17.12a7.31,7.31,0,0,1,.82.76,5.83,5.83,0,0,1,1.34,2.5,5.69,5.69,0,0,1-.11,3.09,5.34,5.34,0,0,1-.69,1.51c-.7,1.08,1,2.09,1.73,1Z" transform="translate(-1.87 -0.15)"/><path class="cls-33" d="M107.61,81.83a9.8,9.8,0,0,0,.31-7.59,10.38,10.38,0,0,0-3.48-4.51,1,1,0,1,0-1,1.73l0,0,.3.25a10.46,10.46,0,0,1,.75.74A7.91,7.91,0,0,1,106,74.78a7.8,7.8,0,0,1,.52,3.73,7.26,7.26,0,0,1-.3,1.4c-.06.2-.12.4-.2.6l-.1.27c.06-.15,0,0,0,0a1,1,0,0,0,.36,1.37,1,1,0,0,0,1.37-.36Z" transform="translate(-1.87 -0.15)"/><path class="cls-34" d="M145.69,2.92l3.58,4.29a1,1,0,0,0,1,.26,13.72,13.72,0,0,0,6-3.11l-1.67-.44a9.26,9.26,0,0,1,.06,2.68,8.85,8.85,0,0,1-.37,1.68,5.16,5.16,0,0,0-.41,1.3c0,.54.51,1,.83,1.41s.79,1,1.21,1.42a28.21,28.21,0,0,0,2.31,2.2l.45-1.67a15.63,15.63,0,0,1-6.59.53,1,1,0,0,0-1.13.46l-3,5.78h1.73a9.81,9.81,0,0,1-1.41-4.89,1,1,0,0,0-.5-.86,16.57,16.57,0,0,0-2.57-1.07c-.27-.08.17.11-.14-.06a4.85,4.85,0,0,1-.49-.29,26.92,26.92,0,0,1-3.6-3l-.44,1.67a10.5,10.5,0,0,0,5.25-2.17,2.45,2.45,0,0,0,.57-1.49l.36-1.7c.24-1.13.49-2.26.73-3.4S145.7.69,145.43,2q-.65,3-1.3,6.07l.46-.59a10.61,10.61,0,0,1-4.67,1.88,1,1,0,0,0-.44,1.67,29.72,29.72,0,0,0,3.92,3.24,28.24,28.24,0,0,0,3.28,1.46l-.49-.86a11.89,11.89,0,0,0,1.68,5.9,1,1,0,0,0,1.73,0l3-5.78-1.13.46a18,18,0,0,0,7.65-.53,1,1,0,0,0,.44-1.67,25,25,0,0,1-3.91-4.12l.1.77a11.61,11.61,0,0,0,.69-6.46c-.13-.8-1.16-.89-1.67-.44a11.7,11.7,0,0,1-5.09,2.59l1,.26L147.1,1.51C146.28.52,144.87,1.94,145.69,2.92Z" transform="translate(-1.87 -0.15)"/><path class="cls-35" d="M220.51,75.68a6.35,6.35,0,0,0-3.27-4.58,9.63,9.63,0,0,0-6.93-.13l1.27,1a10.22,10.22,0,0,0-2.33-6.1,6.67,6.67,0,0,0-5.31-2.06c-3.6.31-5.79,3.9-6.5,7.15A20.74,20.74,0,0,0,200,85.05a5.29,5.29,0,0,0,.73,1.18c.5.5,1.7.42,2.37.47a25.64,25.64,0,0,0,3.82,0,33.12,33.12,0,0,0,5.84-1.05,11.72,11.72,0,0,0,6.11-3.29,8,8,0,0,0,1.68-6.66c-.23-1.27-2.16-.73-1.93.53,0,.07,0,.36,0,.2a7.88,7.88,0,0,1,0,1,6,6,0,0,1-.52,2.4,6.24,6.24,0,0,1-2.9,2.82,16.39,16.39,0,0,1-3.93,1.32,31.39,31.39,0,0,1-3.73.69,26.16,26.16,0,0,1-6.19-.08l.87.49c-2.5-4.07-4-9.29-2.78-14a8,8,0,0,1,.3-1c0-.06.19-.47.07-.2l.12-.27a11.9,11.9,0,0,1,1.19-2.08,4.19,4.19,0,0,1,5.42-1.19c2,1,2.86,3.52,3,5.64a1,1,0,0,0,1.26,1,7.87,7.87,0,0,1,5.39-.08,4.48,4.48,0,0,1,2.35,3.39C218.81,77.47,220.74,76.94,220.51,75.68Z" transform="translate(-1.87 -0.15)"/><path class="cls-35" d="M207.1,69.61a2.93,2.93,0,0,0-1.83-1.24,3,3,0,0,0-1.76.22,3.07,3.07,0,0,0-1.21,1,1,1,0,0,0-.1.77,1.1,1.1,0,0,0,.46.6,1,1,0,0,0,.77.1,1.19,1.19,0,0,0,.6-.46l0,0-.16.2a1.85,1.85,0,0,1,.38-.36l-.21.15a2.46,2.46,0,0,1,.45-.25l-.24.1a2,2,0,0,1,.48-.13l-.26,0a1.77,1.77,0,0,1,.46,0l-.27,0a1.69,1.69,0,0,1,.44.12l-.24-.1a2.38,2.38,0,0,1,.44.25l-.2-.15a2.16,2.16,0,0,1,.37.37l-.16-.2,0,0a1,1,0,0,0,.59.46,1,1,0,0,0,.77-.1,1,1,0,0,0,.36-1.37Z" transform="translate(-1.87 -0.15)"/><path class="cls-36" d="M135.31,225.27l1.19,5.26a1,1,0,0,0,.7.7,13,13,0,0,0,6.45-.11l-1.23-1.23a10,10,0,0,1-1.19,2.52,9.11,9.11,0,0,1-1,1.23c-.32.33-.84.65-1,1.11a4,4,0,0,0,.19,1.59c.11.52.24,1,.38,1.54a23.15,23.15,0,0,0,1,2.9l1.23-1.23a14.88,14.88,0,0,1-6-2.48.94.94,0,0,0-1,0L130,240.79l1.51.87a9.65,9.65,0,0,1,.88-4.85,1,1,0,0,0,0-1,19.23,19.23,0,0,0-5.14-4.79l-.23,1.83,3.38-.46,1.69-.23a1.58,1.58,0,0,0,1.35-.93l3.72-5.71c.71-1.08-1-2.09-1.72-1l-4,6.12.6-.46-5.57.75c-.91.12-.88,1.41-.24,1.82a16.38,16.38,0,0,1,4.42,4.08v-1a11.74,11.74,0,0,0-1.15,5.86c0,.68.84,1.35,1.5.86l5.06-3.73h-1a16.24,16.24,0,0,0,6.51,2.69c.65.11,1.55-.45,1.23-1.23a24.53,24.53,0,0,1-1.58-5.5l-.26,1a11.43,11.43,0,0,0,3.4-5.3,1,1,0,0,0-1.23-1.23,10.77,10.77,0,0,1-5.38.11l.7.7-1.19-5.26C137,223.48,135,224,135.31,225.27Z" transform="translate(-1.87 -0.15)"/><path class="cls-15" d="M147.4,220.76a12.17,12.17,0,0,1,2.89,4.88,14,14,0,0,1-.54,9.68,14.78,14.78,0,0,1-1.48,2.63,1,1,0,0,0,.36,1.37A1,1,0,0,0,150,239a15.85,15.85,0,0,0,.61-17.34,13.52,13.52,0,0,0-1.79-2.28,1,1,0,0,0-1.41,1.42Z" transform="translate(-1.87 -0.15)"/><path class="cls-37" d="M135.92,217a7.74,7.74,0,0,1,3.81-9.9,7.55,7.55,0,0,1,8.48,1.61,7.67,7.67,0,0,1,.13,10.26C145,222.43,138,221.31,135.92,217Z" transform="translate(-1.87 -0.15)"/><path class="cls-38" d="M143.57,210.64l.3.08.24.08.14,0c.21.07-.21-.1,0,0a5.38,5.38,0,0,1,.67.36l.15.1.1.08-.07-.06.34.32.17.18c.07.08.14.14,0,0a2.16,2.16,0,0,1,.29.45,3.84,3.84,0,0,1,.18.35c-.07-.16,0,.05,0,.1a3,3,0,0,1,.15.57c0,.12.06.21,0,0a1.27,1.27,0,0,1,0,.28c0,.15,0,.3,0,.45a2.19,2.19,0,0,0,0,.36c0-.05,0-.28,0-.11s0,.08,0,.12a1,1,0,1,0,1.93.53,5.29,5.29,0,0,0-4.09-6.27,1,1,0,0,0-1.23.7,1,1,0,0,0,.7,1.23Z" transform="translate(-1.87 -0.15)"/><path class="cls-39" d="M19.22,111.6c-.8,1.86.94,5,1.27,5.55s1.78,3.25,3.51,3.2a2.49,2.49,0,0,0,1.59-.76,5,5,0,0,0,1.19-4.9A5.94,5.94,0,0,0,23.17,111C22.83,110.82,20,109.68,19.22,111.6Z" transform="translate(-1.87 -0.15)"/><path class="cls-40" d="M146.76,48.81c4.59-4.27,5.75-11.36,3.44-17.07a16.48,16.48,0,0,0-1.72-3.24c-.73-1-2.47,0-1.73,1a14.14,14.14,0,0,1,.2,16,11.85,11.85,0,0,1-1.6,1.84c-.95.88.47,2.29,1.41,1.42Z" transform="translate(-1.87 -0.15)"/><path class="cls-41" d="M132.93,51c-1.79,3.46-.18,8.48,3.83,10.38a8.26,8.26,0,0,0,9.12-1.47,7.78,7.78,0,0,0,.4-10.65C142.77,45.55,135.25,46.55,132.93,51Z" transform="translate(-1.87 -0.15)"/><path class="cls-42" d="M141.49,59.73a5.76,5.76,0,0,0,3-1.58,5.43,5.43,0,0,0,1.44-4.79,1,1,0,0,0-1.23-.7,1,1,0,0,0-.69,1.23s0,.08,0,.12c-.07-.36,0-.19,0-.09s0,.25,0,.37a2.68,2.68,0,0,1,0,.49c0,.07,0,.27,0,0a1.13,1.13,0,0,1-.06.31,3.89,3.89,0,0,1-.18.58c.07-.18,0,.09-.05.11a3,3,0,0,1-.19.35l-.13.2-.09.12c.08-.1.08-.11,0,0a4,4,0,0,1-.35.37l-.18.16c-.2.17.12-.08,0,0s-.24.17-.37.24a2.64,2.64,0,0,1-.37.2l-.2.09c.25-.13.13-.05.05,0a5.92,5.92,0,0,1-.91.27,1,1,0,0,0-.7,1.23,1,1,0,0,0,1.23.69Z" transform="translate(-1.87 -0.15)"/><path class="cls-43" d="M136.27,191.82c-2.48.63-4.26,2.8-5.21,5.06a12.71,12.71,0,0,0,0,9.45,1,1,0,0,0,1.23.7l14.56-4.58a1,1,0,0,0,.69-1.23A12.81,12.81,0,0,0,143,193.7a8.16,8.16,0,0,0-6.68-1.88c-1.26.28-.73,2.21.53,1.93a4.73,4.73,0,0,1,2.37.15,8,8,0,0,1,2.6,1.4,11,11,0,0,1,3.81,6.45l.69-1.23-14.55,4.58,1.23.7a10.94,10.94,0,0,1-.11-8c.7-1.75,2-3.55,4-4A1,1,0,0,0,136.27,191.82Z" transform="translate(-1.87 -0.15)"/><path class="cls-43" d="M135.81,205.64a7.78,7.78,0,0,0-2.47-10.85c-1.09-.69-2.09,1-1,1.72l.21.14c.07,0,.36.28.17.12a8.48,8.48,0,0,1,.82.76,5.7,5.7,0,0,1,1.23,5.6,5.17,5.17,0,0,1-.69,1.5c-.7,1.09,1,2.09,1.73,1Z" transform="translate(-1.87 -0.15)"/><path class="cls-43" d="M141.35,203.89a9.78,9.78,0,0,0,.31-7.58,10.38,10.38,0,0,0-3.48-4.51,1,1,0,0,0-1.37.36,1,1,0,0,0,.36,1.37c.21.15-.11-.1.05,0l.3.25c.26.24.51.48.75.74a8.05,8.05,0,0,1,1.46,2.29,7.82,7.82,0,0,1,.52,3.74A7.33,7.33,0,0,1,140,202a5.27,5.27,0,0,1-.2.6c0,.09-.06.18-.1.27l0,0a1,1,0,1,0,1.72,1Z" transform="translate(-1.87 -0.15)"/><path class="cls-9" d="M127.41,208.76c3,.64,3.86,5,4.07,6,.7,3.33.18,8.48-2.61,9.37a4.1,4.1,0,0,1-4.13-1.35c-1.39-1.76.27-3.43-.53-7.53-.53-2.71-1.57-3.55-.95-4.79A3.93,3.93,0,0,1,127.41,208.76Z" transform="translate(-1.87 -0.15)"/><path class="cls-23" d="M200.69,53.63a3.42,3.42,0,0,0-2.7-.12,4.24,4.24,0,0,0-2.52,1.87,4.08,4.08,0,0,0-.48,2.94c.31,1.4,1.49,3,3,3.13,2,.15,3.58-2.31,3.84-4.19C201.91,57,202.21,54.58,200.69,53.63Z" transform="translate(-1.87 -0.15)"/><path class="cls-22" d="M187,39.86a4.86,4.86,0,0,0-3.24-.12,5.21,5.21,0,0,0-3,1.86,3.58,3.58,0,0,0-.58,2.95,4.34,4.34,0,0,0,3.68,3.13c2.45.15,4.31-2.31,4.62-4.19C188.45,43.24,188.81,40.81,187,39.86Z" transform="translate(-1.87 -0.15)"/><path class="cls-44" d="M224.64,100.15c-2.24,5.37-4.1,12.57-.3,17.73,1.84,2.48,4.56,3.8,7.16,5.33a15.24,15.24,0,0,1,6.85,7.58,25.14,25.14,0,0,1,1,12.44,1,1,0,0,0,.7,1.23,1,1,0,0,0,1.23-.7,30.19,30.19,0,0,0-.3-11.25,16.77,16.77,0,0,0-6.14-9.48c-2.36-1.78-5.24-2.82-7.46-4.77a9.58,9.58,0,0,1-3.14-6.22c-.4-3.9.84-7.81,2.32-11.36a1,1,0,0,0-.7-1.23,1,1,0,0,0-1.23.7Z" transform="translate(-1.87 -0.15)"/><path class="cls-45" d="M246.22,140.6c.87-5.43,1.14-11.8-2.19-16.52-1.77-2.52-4.28-3.94-7-5.2-2.39-1.1-4.69-2.34-5.63-5-1.4-3.91,0-8.32,1.5-12,.22-.54-.25-1.05-.7-1.23a17.81,17.81,0,0,0-10.71-.81q-.71.17-1.38.39a1.43,1.43,0,0,0-.81.45,5,5,0,0,0-.5,1.13c-1.5,3.85-2.7,8.15-2.19,12.32a11.71,11.71,0,0,0,4.69,8.2c2.93,2.16,6.57,3.2,9,6,3.46,4.07,3.2,10,2.1,14.9a1,1,0,0,0,.7,1.23A12.89,12.89,0,0,0,246,141c.9-.92-.51-2.34-1.41-1.42a10.86,10.86,0,0,1-11,3l.7,1.23a24,24,0,0,0,.16-11.54,14,14,0,0,0-6.28-8.22c-2.4-1.5-5.19-2.5-7.17-4.59a8.61,8.61,0,0,1-1.31-1.81c-.11-.22-.32-.64-.36-.75s-.17-.42-.23-.59a11.27,11.27,0,0,1-.6-3.1c-.24-4,1-8,2.52-11.65l-.7.7a16.22,16.22,0,0,1,11.32.33l-.7-1.23c-1.39,3.4-2.5,7.17-2,10.87a9.54,9.54,0,0,0,4.83,7.23c2.33,1.34,5,2.09,7,3.91a11.76,11.76,0,0,1,3.41,5.92,26.92,26.92,0,0,1,.08,10.73,1,1,0,0,0,.7,1.23A1,1,0,0,0,246.22,140.6Z" transform="translate(-1.87 -0.15)"/><path class="cls-15" d="M235.73,93.51c3.85,3.81,4.73,10.16,2.44,15.18a15.38,15.38,0,0,1-1.61,2.74,1,1,0,0,0,.36,1.37,1,1,0,0,0,1.37-.36,16.11,16.11,0,0,0,.74-18,13.81,13.81,0,0,0-1.89-2.35c-.92-.91-2.33.51-1.41,1.41Z" transform="translate(-1.87 -0.15)"/><path class="cls-46" d="M223.41,89.49c-1.69-3.51.06-8.48,4.13-10.25A8.26,8.26,0,0,1,236.62,81a7.78,7.78,0,0,1,.07,10.66C233.07,95.26,225.59,94,223.41,89.49Z" transform="translate(-1.87 -0.15)"/><path class="cls-47" d="M231.66,83,232,83l.26.08.17.06c.18.07-.06,0-.06,0s.64.32.71.37l.18.12.08.06c.09.06.07.05,0,0a1.4,1.4,0,0,1,.36.33,4.14,4.14,0,0,1,.35.38c-.15-.19,0,0,0,.05l.17.27.14.27c.05.11.06.12,0,0l.06.18a4.5,4.5,0,0,1,.17.6s.07.31,0,0c0,.1,0,.21,0,.3v.47c0,.06,0,.11,0,.17s0,.28,0,.07,0,.09,0,.15a1,1,0,0,0,.7,1.23,1,1,0,0,0,1.23-.7,5.44,5.44,0,0,0-1.34-4.83,5.81,5.81,0,0,0-3-1.66,1,1,0,0,0-.53,1.93Z" transform="translate(-1.87 -0.15)"/><path class="cls-31" d="M237.84,70.49c-2.47,4.43-9.56,5.28-12.54,2-2.13-2.34-1.76-6.35-.14-9,1.87-3,6.1-5.39,9.72-3.69C238.71,61.63,239.78,67,237.84,70.49Z" transform="translate(-1.87 -0.15)"/><text class="cls-48" transform="translate(226.54 71.35) rotate(-21.85)">m</text><path class="cls-49" d="M154.81,64.08a52.11,52.11,0,0,0-2.31,5.69,16.47,16.47,0,0,0-1.16,4.68c-.13,2.93,2.08,5,4.08,6.83a52.24,52.24,0,0,0,8.68,6.94,7.06,7.06,0,0,0,3.67,1.2,12.89,12.89,0,0,0,5.14-1.82,27.36,27.36,0,0,0,5.45-3.66c1-.84-.44-2.25-1.42-1.41a24.89,24.89,0,0,1-4.11,2.85,15.23,15.23,0,0,1-4.57,2,4.25,4.25,0,0,1-.71.06h-.22c-.21,0,.24,0-.09,0s-.49-.13-.73-.21l-.23-.09c.17.06.05,0,0,0l-.59-.29a39.26,39.26,0,0,1-7.49-5.73,36,36,0,0,1-3.56-3.43,7.31,7.31,0,0,1-.91-1.31,2.2,2.2,0,0,1-.2-.49l-.09-.33c0-.17,0-.15,0-.19a10.16,10.16,0,0,1,.83-4.33,50.61,50.61,0,0,1,2.34-5.9c.56-1.15-1.16-2.16-1.72-1Z" transform="translate(-1.87 -0.15)"/><path class="cls-50" d="M178.85,83.51a9.76,9.76,0,0,0,8.2.1c4.85-2.16,7.27-8.37,5.6-13.16A10.16,10.16,0,0,0,189,65.67a10.39,10.39,0,0,0-1.53-10.54,10.5,10.5,0,0,0-7.39-3.54c-.13-.19-3.2-4.67-8.62-4.36A9.72,9.72,0,0,0,163.18,53c-.26-.12-4.29-1.91-7.26.19-3.34,2.35-3.06,8-.91,10.62,1.75,2.16,3.77,1.12,6.14,3.62s1.12,4.34,3.3,6.51c2.48,2.46,4.66.66,8.3,3S175.53,81.81,178.85,83.51Z" transform="translate(-1.87 -0.15)"/><path class="cls-49" d="M171.46,46.23a10.44,10.44,0,0,0-6.22,2.44,10.23,10.23,0,0,0-3.34,5.9,10.78,10.78,0,0,0-.21,2,1,1,0,0,0,2,0c0-.24,0-.48,0-.71l0-.28c0-.29,0,.06,0-.13s.07-.41.11-.62a8.79,8.79,0,0,1,1.37-3.26,7.77,7.77,0,0,1,3.4-2.73,8.9,8.9,0,0,1,1.76-.52l.39-.07h0l.17,0,.51,0c1.28-.06,1.29-2.06,0-2Z" transform="translate(-1.87 -0.15)"/><path class="cls-49" d="M188.16,54.47a10.23,10.23,0,0,0-7.11-3.76,10.56,10.56,0,0,0-6.83,1.95,1,1,0,0,0-.36,1.37,1,1,0,0,0,1.37.35,8.9,8.9,0,0,1,5.62-1.68,8.24,8.24,0,0,1,5.9,3.19,1,1,0,0,0,1.41,0,1,1,0,0,0,0-1.42Z" transform="translate(-1.87 -0.15)"/><path class="cls-49" d="M193.52,70.16a10.2,10.2,0,0,0-5.28-6,10.79,10.79,0,0,0-7.38-.55,1,1,0,0,0,.53,1.93,8.66,8.66,0,0,1,5.84.35,7.85,7.85,0,0,1,3.21,2.61,8.78,8.78,0,0,1,.81,1.35,5.63,5.63,0,0,1,.34.84c.42,1.21,2.35.69,1.93-.53Z" transform="translate(-1.87 -0.15)"/><path class="cls-49" d="M161.78,65.65a10.06,10.06,0,0,0,2.4,9.38c.88.94,2.29-.47,1.42-1.42a5.6,5.6,0,0,1-.4-.45,1,1,0,0,1-.13-.16h0l-.27-.38a8.41,8.41,0,0,1-.92-1.82,7.93,7.93,0,0,1-.17-4.62,1,1,0,0,0-1.93-.53Z" transform="translate(-1.87 -0.15)"/><path class="cls-49" d="M174,75.75a10,10,0,0,0,4.33,8.65,1,1,0,0,0,1.37-.36,1,1,0,0,0-.36-1.37l-.21-.15c-.05,0-.21-.17,0,0l-.13-.1q-.33-.27-.63-.57a7,7,0,0,1-1.25-1.55A7.89,7.89,0,0,1,176,75.75a1,1,0,0,0-2,0Z" transform="translate(-1.87 -0.15)"/><circle class="cls-50" cx="168.61" cy="53" r="0.41"/><circle class="cls-50" cx="156.97" cy="55.76" r="0.41"/><circle class="cls-50" cx="184.19" cy="70.26" r="0.41"/><circle class="cls-50" cx="185.85" cy="75.52" r="0.41"/><circle class="cls-50" cx="164.82" cy="68.12" r="0.41"/><circle class="cls-50" cx="168.35" cy="58.86" r="0.41"/><circle class="cls-50" cx="180.47" cy="58.05" r="0.41"/><circle class="cls-50" cx="157.01" cy="61.18" r="0.41"/><circle class="cls-50" cx="162.55" cy="61.02" r="0.41"/><circle class="cls-50" cx="172.69" cy="66.22" r="0.41"/><circle class="cls-50" cx="179.47" cy="79.63" r="0.41"/><circle class="cls-50" cx="177.69" cy="71.92" r="0.41"/><circle class="cls-50" cx="170.47" cy="72.55" r="0.41"/><circle class="cls-50" cx="175.48" cy="60.75" r="0.41"/><line class="cls-50" x1="160.6" y1="68.69" x2="150.24" y2="73.23"/><line class="cls-50" x1="162.6" y1="73.54" x2="152.24" y2="78.09"/><line class="cls-50" x1="169.67" y1="76.31" x2="156.57" y2="82.05"/><line class="cls-50" x1="173.94" y1="80.2" x2="160.74" y2="85.99"/><g id="Layer_2-2" data-name="Layer 2"><g id="Layer_1-2-2" data-name="Layer 1-2"><path class="cls-51" d="M99.8,91c2.42-.32,3.32-2.29,6.39-2.74a12.13,12.13,0,0,1,2.41,0c4.74.47,5.24,2.7,11.09,3.81a19.14,19.14,0,0,0,9.51,0c3.42-1,4.17-2.62,8.48-3.44a10.67,10.67,0,0,1,5.44,0c2.23.62,2.46,1.73,4.67,2.25s2.78-.52,5.46-.24a12.93,12.93,0,0,1,6.83,3.25c2.92,2.33,2.46,3.52,4,4.13,4.48,1.87,9.47-9.09,16.34-8.51,5.06.43,9.9,6.93,9.39,11.57A10.26,10.26,0,0,1,189,104c-1.87,4.81-4.69,7.27-4.37,7.62s2.18-.83,4.82-3.13c6.24-5.44,6.26-8.72,11.58-13.6,2.22-2,7-6.42,10.48-5,2.3.94,3,4.13,3.12,4.81.83,4.35-2.45,6-3.44,10.92-1.27,6.31,3.46,7.58,3.2,15.19-.24,6.89-4.17,7.36-4,13.44.26,7.56,6.47,10.38,4.78,14.35-1.31,3.14-6.59,4.77-10.08,3.52a5.15,5.15,0,0,1-.9-.4,20.3,20.3,0,0,1-7.1-6.53c-3.62-5-4.31-7.43-8.34-11.93,0-.1-1.87-2-2.17-1.85s5.94,6.59,5,13.08c-.6,4.29-4,9.29-8.68,10.21-7,1.41-11.81-8.4-18.13-6.63-4,1.11-4,5.93-9.57,7.16a10.8,10.8,0,0,1-5.5.14c-2.24-.61-3.25-1.84-5.65-1.8-1.43,0-1.27.47-2.72.49-2.37,0-3.16-1.19-5.52-1.35a8.39,8.39,0,0,0-3.22.46,49.74,49.74,0,0,1-12.35,1,48.79,48.79,0,0,1-15.56-2,15.07,15.07,0,0,0-5.72-1,14.78,14.78,0,0,0-5.48,1.23,46.38,46.38,0,0,1-14.1,2.51c-8.28.53-20.15-3.2-22.93-10.59-2.36-6.21,2-14.41.64-14.85-.36-.12-.92.56-1.1.78-3.31,4-9.78,12.09-15.34,13.78-4,1.25-9.32-.26-10.29-2.8-1.25-3.26,5.38-6,5.34-12.09,0-5.17-4.94-6-5.12-11.34-.26-5.84,5.4-7.27,5-12.79S29,97.79,29.78,94.13c.69-3.15,6-5.46,10.22-5,7.47.79,13.4,10.17,13.48,17.45,0,1.49-.2,3.44.16,3.5s1.27-5.88,4.21-10.82c4.17-6.87,12.65-11.06,20-11.76,4.45-.45,12.93,0,18,2.52A6.64,6.64,0,0,0,99.8,91Z" transform="translate(-1.87 -0.15)"/><path class="cls-52" d="M166.67,121.63c8.06,6,20.45,16.32,20.45,21,0,4.28-2.84,7.62-6.16,7.62-1.76,0-7.76-5.16-14.29-10.88-3.34-3.34-7.92-6.61-9.07-7.84,0,5.58.23,8.85.23,12.33,0,2.82-.67,7.34-6.69,7.34a6.82,6.82,0,0,1-6.81-6c0-7,.58-11.24.58-16.32,0-2.54-.44-25.89-.44-28.71,0-3.85,4-5.44,6.75-5.44a7,7,0,0,1,6.81,6.75c0,2.9-.73,6.23-.73,10.8v1.17c3.63-3.57,7.78-7.34,11.61-10.88,5-4.72,8-8.16,10.6-8.16s5.66,3.91,5.66,7.11c0,2-1.31,3.27-4.44,6.31Z" transform="translate(-1.87 -0.15)"/><path class="cls-15" d="M166.17,122.49c3.85,2.9,7.63,5.92,11.21,9.16a69.9,69.9,0,0,1,5,4.91,20.54,20.54,0,0,1,3.17,4.25,4.37,4.37,0,0,1,.34.72,6.2,6.2,0,0,1,.24.87c0,.25,0-.15,0,0s0,.13,0,.19c0,.28,0,.57,0,.85a7.58,7.58,0,0,1-.39,1.82,5.58,5.58,0,0,1-4.25,4c-.18,0-.36,0-.55,0s.24.07,0,0l-.12,0c-.06,0-.41-.15-.2-.06l-.51-.25a19.26,19.26,0,0,1-2.17-1.42c-2.16-1.57-4.19-3.31-6.21-5.05-1.4-1.19-2.8-2.39-4.17-3.61-1.22-1.1-2.4-2.26-3.66-3.32s-2.28-1.88-3.43-2.81a25.62,25.62,0,0,1-2.16-1.87,1,1,0,0,0-1.71.7c0,2.49.06,5,.13,7.46.05,1.83.16,3.67.08,5.5a7.17,7.17,0,0,1-.93,3.59,5,5,0,0,1-4,2.09,6.11,6.11,0,0,1-5.37-2.17,5.85,5.85,0,0,1-1.18-2.68,11.43,11.43,0,0,1,0-1.85c0-.74,0-1.49,0-2.23.13-4.2.54-8.39.52-12.6,0-5.35-.16-10.71-.25-16.07q-.09-4.51-.15-9c0-2-.49-4.55,1.07-6.1a6.28,6.28,0,0,1,9.35.79c1.23,1.76,1.15,3.69,1,5.73-.23,2.52-.54,5-.58,7.56,0,.63,0,1.26,0,1.89a1,1,0,0,0,1.71.71c2.67-2.63,5.41-5.17,8.16-7.71s5.26-5,7.89-7.43A28.62,28.62,0,0,1,177,96.5a5.47,5.47,0,0,1,2.25-1.09c.3-.06-.19,0,.12,0,.1,0,.21,0,.32,0a2.55,2.55,0,0,1,.66.16,4.48,4.48,0,0,1,1.38.89,8,8,0,0,1,2.19,3.36,5.59,5.59,0,0,1,.3,1.81c0,.08,0,.15,0,.23,0,.34,0-.17,0,.16a3.12,3.12,0,0,1-.21.72,9.73,9.73,0,0,1-1.91,2.43c-.91.92-1.85,1.82-2.77,2.72L172,115l-6,5.91c-.92.91.5,2.32,1.42,1.42l5.4-5.31,7.74-7.61c1-1,1.95-1.89,2.9-2.86a10.85,10.85,0,0,0,2.26-2.92,5.63,5.63,0,0,0,.35-3.46c-.51-2.72-2.57-5.67-5.26-6.58-2.25-.76-4.36.73-6,2.09-2.64,2.17-5,4.7-7.49,7-2.89,2.66-5.79,5.31-8.63,8l-2,2,1.71.71c0-2.22.09-4.42.31-6.62s.7-4.6.23-6.82a8,8,0,0,0-4-5.33,8.11,8.11,0,0,0-6.09-.59,7.15,7.15,0,0,0-4.7,3.59,8.07,8.07,0,0,0-.54,3.64c0,2.73.08,5.46.12,8.19.11,6.18.24,12.35.3,18.53,0,3.8-.28,7.6-.44,11.4-.06,1.4-.11,2.8-.12,4.2a9.07,9.07,0,0,0,.59,3.9,7.9,7.9,0,0,0,5.06,4.42,8.8,8.8,0,0,0,6.5-.74,6.64,6.64,0,0,0,2.95-4,17,17,0,0,0,.38-4.66c0-2.22-.13-4.44-.17-6.66,0-1.43,0-2.86-.05-4.29l-1.7.71a21.44,21.44,0,0,0,2,1.77c1.08.88,2.17,1.75,3.24,2.64,2.48,2.08,4.81,4.33,7.26,6.45,2.26,2,4.53,3.89,6.92,5.68a25.77,25.77,0,0,0,2.47,1.7,4.87,4.87,0,0,0,2,.76c2.34.16,4.5-1.43,5.74-3.29a8.48,8.48,0,0,0,1.33-6.6,13.38,13.38,0,0,0-2.61-4.44,49.18,49.18,0,0,0-4.68-5,149.43,149.43,0,0,0-13.45-11.17,1,1,0,1,0-1,1.72Z" transform="translate(-1.87 -0.15)"/><path class="cls-53" d="M148.15,100.09a3.25,3.25,0,0,1,.43.18l-.36-.2a3.2,3.2,0,0,1,1.08,1l-.18-.28a3.67,3.67,0,0,1,.57,2,.6.6,0,0,0,.38.38,1.2,1.2,0,0,0,.7.23,3.42,3.42,0,0,0,1,0,4.49,4.49,0,0,0,1.15-.21,5,5,0,0,0,2-.88l.39-.37a.76.76,0,0,0,.24-.68,3.69,3.69,0,0,0-.3-1.61,4.69,4.69,0,0,0-.93-1.23,4.47,4.47,0,0,0-1.47-.87,2,2,0,0,0-.83-.12,3.62,3.62,0,0,0-1,0,5.74,5.74,0,0,0-1.17.3,4.38,4.38,0,0,0-1.05.43l-.54.34a1.63,1.63,0,0,0-.63.72v.35a.84.84,0,0,0,.56.48Z" transform="translate(-1.87 -0.15)"/><path class="cls-54" d="M141.28,150.06a7.43,7.43,0,0,1-7.25-7.48c0-29.07-.22-37.13-.22-40.9,0-5,1.59-8.92,6.67-8.92,3.2,0,7.11,2.17,7.11,8.64,0,4.63-.2,10.36-.2,15,0,2.24.14,16.68.14,22.91C147.45,144,147.45,150.06,141.28,150.06Z" transform="translate(-1.87 -0.15)"/><path class="cls-53" d="M137.21,98.42h.13l-.37-.14a3,3,0,0,1,1.29,1L138.1,99a3.81,3.81,0,0,1,.71,2.26.4.4,0,0,0,.34.28,1.25,1.25,0,0,0,.68.14,4.1,4.1,0,0,0,1,0,7.53,7.53,0,0,0,1.15-.22,7.21,7.21,0,0,0,2-.82l.41-.31a.64.64,0,0,0,.26-.58,3.61,3.61,0,0,0-.3-1.59,3.91,3.91,0,0,0-.79-1.35,4.5,4.5,0,0,0-1.45-.81,2.89,2.89,0,0,0-.83,0,4.35,4.35,0,0,0-1,0,5.91,5.91,0,0,0-1.17.3,6.5,6.5,0,0,0-1.07.39l-.54.32a1.71,1.71,0,0,0-.65.6v.26a.65.65,0,0,0,.53.37Z" transform="translate(-1.87 -0.15)"/><path class="cls-55" d="M114.31,116.41c0,6.81.22,18.28.22,20.15h1.23c.86,0,2.31-.14,5.21-.14,4.28,0,7.9-.59,12.09-.59a5.88,5.88,0,0,1,5.77,6c0,.15,0,.29,0,.43,0,8.06-9.8,8.26-17.49,8.26-11.25,0-20.15,0-20.15-8.06,0-34.65-.16-39.45-.22-40.9,0-5,1.59-8.92,6.67-8.92,3.12,0,6.89,2.17,7,8.64Z" transform="translate(-1.87 -0.15)"/><path class="cls-15" d="M113.31,116.41c0,5.89.11,11.77.19,17.65,0,.84,0,1.67,0,2.5a1,1,0,0,0,1,1q1.36,0,2.73-.06c2-.09,4.08-.05,6.12-.14,2.25-.1,4.49-.32,6.74-.44,1.9-.1,3.88-.36,5.55.73a4.88,4.88,0,0,1,2.16,3.88,7.27,7.27,0,0,1-.8,3.87c-1.28,2.18-4,3-6.38,3.51a48.66,48.66,0,0,1-9.11.57,98.53,98.53,0,0,1-10.87-.34c-2.41-.27-5.24-.8-7-2.49a5.08,5.08,0,0,1-1.42-2.74,11.4,11.4,0,0,1-.12-2.11v-3.59q0-10.64,0-21.26c0-3.6,0-7.19-.08-10.79,0-1.37,0-2.74-.08-4.1a15.77,15.77,0,0,1,.24-3.63A6.68,6.68,0,0,1,103.82,95a5.07,5.07,0,0,1,3.62-1.37,5.54,5.54,0,0,1,3,.72,6,6,0,0,1,2.4,2.7,12.3,12.3,0,0,1,.83,5.63l-.29,12.74,0,1a1,1,0,0,0,2,0l.26-11.62a41.34,41.34,0,0,0,0-4.59c-.28-3.15-1.62-6.43-4.65-7.85a7.79,7.79,0,0,0-8.25.94c-2.26,2-2.8,5.44-2.74,8.29,0,1,.06,2.06.08,3.09,0,3.13.06,6.26.08,9.4q.06,10.05.06,20.12v7.24a11,11,0,0,0,.72,4.62c1.11,2.48,3.61,3.8,6.14,4.46a43.4,43.4,0,0,0,10.43,1,103.72,103.72,0,0,0,10.58-.21c2.93-.26,6.17-.77,8.6-2.56a8.36,8.36,0,0,0,3.08-8.21,6.9,6.9,0,0,0-2.91-4.48c-1.78-1.23-3.8-1.22-5.88-1.13-2.36.1-4.72.34-7.09.46-2.17.11-4.34.06-6.51.16-.94,0-1.87.06-2.8.06l1,1c0-5-.15-10.07-.2-15.11,0-1.68,0-3.36,0-5A1,1,0,0,0,113.31,116.41Z" transform="translate(-1.87 -0.15)"/><path class="cls-53" d="M136.15,143.73a4,4,0,0,0-1.41-4.67,9.42,9.42,0,0,0-5.16-.71c-.93,0-1.86.12-2.78.18l-1.37.18H122a32.57,32.57,0,0,1-3.42-.12,4.35,4.35,0,0,0-3.83,1.68c-.71,1.21.58,1.89,1.63,2a87.15,87.15,0,0,0,10.84-.14h2.66c.46,0-.38-.12-.12,0h.34c.39,0-.38-.14-.14,0s.18.14.28.16c-.42-.12-.18-.22,0,0s.16.16.14.12a2.75,2.75,0,0,1,0,2.18c-.32,1.33,1.74,1.57,2.58,1.47,1.21-.16,2.94-.77,3.29-2.12Z" transform="translate(-1.87 -0.15)"/><path class="cls-53" d="M105.28,98.42h0l-.54-.22a3.55,3.55,0,0,1,.78.44l-.38-.3a3.22,3.22,0,0,1,.84,1l-.22-.38a4.05,4.05,0,0,1,.43,1.67v-.36a.62.62,0,0,0,.12.65.83.83,0,0,0,.5.5,1.77,1.77,0,0,0,.87.26,3.76,3.76,0,0,0,1.06,0,5.16,5.16,0,0,0,2.22-.76l.55-.45a1.71,1.71,0,0,0,.54-.9,4.5,4.5,0,0,0-.32-2,4.07,4.07,0,0,0-1-1.43,6.29,6.29,0,0,0-.93-.7,9.91,9.91,0,0,0-1.06-.45,3.55,3.55,0,0,0-1,0,5.08,5.08,0,0,0-1.17.16,4.32,4.32,0,0,0-1.09.45,3.46,3.46,0,0,0-.85.58c-.32.34-.72.87-.54,1.37l.22.4A1.88,1.88,0,0,0,105.28,98.42Z" transform="translate(-1.87 -0.15)"/><path class="cls-56" d="M99.23,112.52a6.22,6.22,0,0,1-4.65-2.46c-1.81-1.81-4.41-4.51-13.2-4.51-2,0-8.06,1-8.06,5.44,0,2.4,4.72,3.12,10.08,4,9.87,1.61,21.4,3.43,21.4,16.82,0,12.09-13.34,18.8-24.36,18.8-10.08,0-20.39-3-20.39-12.09,0-4.51,3-7,5.38-7,3,0,5.8,5.95,15.07,5.95,4.57,0,9.65-2.4,10.07-5.87-.44-1.25-4.94-2.25-9.43-3C71.49,127.09,59,124.19,59,111.78c0-8.49,8.64-19.51,23.65-19.51,12.09,0,21.76,6.31,21.76,12.92C104.51,109.66,102.7,112.52,99.23,112.52Z" transform="translate(-1.87 -0.15)"/><path class="cls-53" d="M100.32,102.45a24,24,0,0,0-25.59-5.74c-1,.34-2.82,1.16-2.43,2.55s2.41,1.29,3.38,1l1.39-.4,1-.24c.16,0,1.19-.24.56-.14a19.8,19.8,0,0,1,5.54-.25A17.26,17.26,0,0,1,95,104.91a3.57,3.57,0,0,0,3.91.26c.85-.38,2.42-1.65,1.47-2.72Z" transform="translate(-1.87 -0.15)"/><path class="cls-53" d="M101.71,131.44a10.1,10.1,0,0,0-1.73-6.35,10.63,10.63,0,0,0-4.77-3.46,41,41,0,0,0-13.52-3.06,6.69,6.69,0,0,0-4.13,1.1c-.87.63-.79,1.42.4,1.5a38.27,38.27,0,0,1,12.25,2.76A9.05,9.05,0,0,1,94.4,127a9.82,9.82,0,0,1,1.49,6c0,1.09,5.74.31,5.82-1.57Z" transform="translate(-1.87 -0.15)"/><path class="cls-53" d="M165.72,131.12a45.53,45.53,0,0,1,6.87,5.58,51.71,51.71,0,0,1,5.93,7,2.22,2.22,0,0,0,1.61.61,5,5,0,0,0,2.28-.45c.9-.42,2.31-1.41,1.51-2.54a52.26,52.26,0,0,0-13.64-13.13,3.27,3.27,0,0,0-2-.26,5.12,5.12,0,0,0-2.21.76c-.91.65-1.64,1.71-.45,2.5Z" transform="translate(-1.87 -0.15)"/><path class="cls-53" d="M176.36,101l.28.12-.56-.26a3.3,3.3,0,0,1,.75.48l-.43-.38a3.49,3.49,0,0,1,.71.92l-.24-.48a3.6,3.6,0,0,1,.38,1.47v-.22a1,1,0,0,0,.14.77,1.13,1.13,0,0,0,.54.6,1.92,1.92,0,0,0,.89.32,2.65,2.65,0,0,0,1,.08,4.55,4.55,0,0,0,2.19-.8l.53-.45a2.21,2.21,0,0,0,.52-1,5.2,5.2,0,0,0-.34-2.14,4.19,4.19,0,0,0-.89-1.51,4.34,4.34,0,0,0-.94-.77,8.66,8.66,0,0,0-1.07-.5,2.5,2.5,0,0,0-1.05-.14,3.33,3.33,0,0,0-1.17.14,3.72,3.72,0,0,0-1.09.46,3.22,3.22,0,0,0-.82.65,1.72,1.72,0,0,0-.51,1.55l.21.5a2,2,0,0,0,1,.63Z" transform="translate(-1.87 -0.15)"/><path class="cls-53" d="M205.44,95.86c-3.27,3.57-6.05,7.92-5.77,13s5.18,9.57,3.77,15c-.62,2.37-2.58,3.88-3.5,6a11.23,11.23,0,0,0-.75,4.55c.16,5.16,3.26,9.86,6.25,13.87.88,1.18,6.48-.71,5.48-2-2.88-3.87-5.85-8.56-5.91-13.62a9.68,9.68,0,0,1,1.15-4.65c1.17-2,2.78-3.43,3.23-5.93.82-4.85-2.48-8.32-3.57-12.77-1.27-5.3,1.47-10.08,5-13.82.88-.93-.73-1.11-1.44-1.11a6.12,6.12,0,0,0-3.9,1.45Z" transform="translate(-1.87 -0.15)"/><path class="cls-53" d="M35.06,95.69a17.41,17.41,0,0,1,5.83,4.08,9.09,9.09,0,0,1,.8,1c.09.14.6,1.05.43.69a8.68,8.68,0,0,1,.76,2.73c.3,2.79-.37,5.44,1,8a10.63,10.63,0,0,0,6.07,4.78,3.63,3.63,0,0,0,3.72-1,1.66,1.66,0,0,0-.14-2.38,1.79,1.79,0,0,0-.6-.34,6.32,6.32,0,0,1-4.5-4.37c-.58-2.59.22-5.25-.62-7.84-1.43-4.46-5.57-7.25-9.77-9.06-2.38-1.13-6.19,2.23-3.07,3.62Z" transform="translate(-1.87 -0.15)"/></g></g><path class="cls-15" d="M181.65,122a22.05,22.05,0,0,1,10.14-6.16,1,1,0,0,0-.53-1.93,24.1,24.1,0,0,0-11,6.68c-.88.94.53,2.36,1.42,1.41Z" transform="translate(-1.87 -0.15)"/><path class="cls-15" d="M180.35,122.12a14.16,14.16,0,0,0,9.57,4.93,1,1,0,0,0,1-1,1,1,0,0,0-1-1,12.06,12.06,0,0,1-8.16-4.34,1,1,0,0,0-1.41,0,1,1,0,0,0,0,1.41Z" transform="translate(-1.87 -0.15)"/><path class="cls-15" d="M181.05,122.41a50.12,50.12,0,0,0,13.6-1.22c1.26-.28.73-2.21-.53-1.93a48.24,48.24,0,0,1-13.07,1.15c-1.28-.06-1.28,1.94,0,2Z" transform="translate(-1.87 -0.15)"/><path class="cls-15" d="M55.2,118.61a10.79,10.79,0,0,1-10.49-2.5c-.93-.89-2.34.53-1.41,1.42a12.82,12.82,0,0,0,12.43,3,1,1,0,0,0-.53-1.93Z" transform="translate(-1.87 -0.15)"/><path class="cls-15" d="M54.5,119.31a9.91,9.91,0,0,1-.37,1.52c-.07.21-.14.42-.22.62,0,0-.12.29,0,.09a3.54,3.54,0,0,1-.16.34,8.81,8.81,0,0,1-.78,1.37,7.62,7.62,0,0,1-6.14,3.17,1,1,0,0,0,0,2,9.61,9.61,0,0,0,6.49-2.53,10.73,10.73,0,0,0,2.8-4.63,10.11,10.11,0,0,0,.34-1.42,1,1,0,0,0-.7-1.23,1,1,0,0,0-1.23.7Z" transform="translate(-1.87 -0.15)"/><path class="cls-15" d="M54.76,118.86l-.15.12,0,0-.43.31A11.59,11.59,0,0,1,53,120a11.93,11.93,0,0,1-3.14,1.23,12.07,12.07,0,0,1-7.27-.62,1,1,0,0,0-1.23.7,1,1,0,0,0,.7,1.23,14.13,14.13,0,0,0,14.1-2.28,1,1,0,0,0,0-1.42,1,1,0,0,0-1.41,0Z" transform="translate(-1.87 -0.15)"/><path class="cls-21" d="M182.56,167.49c-1.5-2.62,1.12-6.18,1.74-7,2-2.74,6.2-5.79,8.73-4.3a4.08,4.08,0,0,1,1.74,4c-.38,2.21-2.74,2.09-5.26,5.41-1.66,2.21-1.6,3.54-2.94,3.91A3.93,3.93,0,0,1,182.56,167.49Z" transform="translate(-1.87 -0.15)"/></g></g></svg>